<svg width="187" height="45" viewBox="0 0 187 45" fill="none" xmlns="http://www.w3.org/2000/svg">
<path d="M5.3 32.6102C7.08 37.3602 6.71 41.0202 5.3 42.8602C5.03468 43.1774 4.69801 43.4273 4.31757 43.5895C3.93712 43.7516 3.52369 43.8214 3.1111 43.7931C2.69851 43.7649 2.29847 43.6393 1.94371 43.4267C1.58895 43.2142 1.28956 42.9207 1.07001 42.5702C0.320009 41.2102 1.07 39.8002 2.3 38.8602C3.8073 37.1328 4.61039 34.902 4.55 32.6102H5.3ZM19.58 26.6102C19.58 26.6102 22.45 28.7302 24.24 30.3302C24.1 30.8402 23.67 31.0802 23.01 31.0802H1.44L1.07001 29.7102H10.07V23.5602H2.41001L2.03 22.2002H10.03V17.6802H7V18.1502C7 18.5302 5.07 19.5602 3.28 19.5602H2.62V1.0802L7.23 3.0002H17.33L19.45 0.700195L23.91 4.1302C23.4425 4.59612 22.8345 4.89488 22.18 4.98019V17.7602C22.13 18.0902 19.92 18.9802 18.46 18.9802H17.76V17.7102H14.89V22.2302H16.44L18.7 19.3602C18.7 19.3602 21.33 21.3602 22.97 22.8402C22.88 23.3502 22.41 23.5902 21.75 23.5902H14.89V29.7402H17.01L19.58 26.6102ZM7 4.32021V6.1002L7.37 5.96021C9.67 7.96021 10.61 9.9602 10.75 11.4202V4.32021H7ZM7 16.3202H10.75V12.1402C10.61 13.7802 9.3 14.5302 8.17 13.3102C8.05348 11.1652 7.66023 9.04434 7 7.0002V16.3202ZM8.64 32.8602C15.74 39.1602 10.64 45.7402 7.79 41.8602C8.4138 38.9523 8.47829 35.9522 7.98 33.0202L8.64 32.8602ZM12.64 32.6302C21.81 37.4702 17.3 44.8902 13.87 41.3202C14.0611 38.3894 13.4418 35.4625 12.08 32.8602L12.64 32.6302ZM14.2 4.29019V16.2902H17.77V9.29019C16.97 10.6502 15.93 12.5302 14.9 14.0802L14.29 13.8502C14.71 11.5002 15.18 7.8502 15.37 6.0002L17.77 6.84019V4.26019L14.2 4.29019ZM17.86 32.4902C28 37.0002 23.3 45.0002 19.68 41.3102C19.7745 38.3068 18.9701 35.3436 17.37 32.8002L17.86 32.4902ZM36.14 13.1202V22.5202H38L40.58 19.5202L45.58 23.3302C45.0693 23.8502 44.3869 24.1666 43.66 24.2202V42.3602C43.66 42.6002 41.92 43.6302 39.14 43.6302H38.25V40.1602H29.6V42.7902C29.6 43.1202 28.01 44.0602 25.33 44.0602H24.39V20.3502L30.07 22.5502H30.92V0.750198L37.83 1.3602C37.78 2.0602 37.36 2.5302 36.18 2.7202V11.8402H38.35L40.98 8.2202C40.98 8.2202 43.98 10.7102 45.86 12.4002C45.72 12.9202 45.21 13.1502 44.55 13.1502L36.14 13.1202ZM29.56 23.8402V38.8402H38.21V23.8402H29.56Z" fill="#009791"/>
<path d="M69.22 12.5401C69.22 12.5401 72.04 15.3201 73.54 17.1501C73.4 17.6701 72.93 17.9001 72.27 17.9001H66V34.2601C68.16 33.8301 70.42 33.3201 72.68 32.8501L72.82 33.4101C66.24 37.0212 59.459 40.2532 52.51 43.0901C52.3986 43.3712 52.2286 43.6254 52.0114 43.8358C51.7941 44.0461 51.5346 44.2078 51.25 44.3101L47.63 37.7301C48.63 37.5901 50.02 37.3601 51.63 37.0301V10.1501L58.26 10.7601C58.16 11.3201 57.83 11.7601 56.7 11.9301V36.0901L60.7 35.3401V0.650055L67.7 1.31006C67.61 1.97006 67.23 2.49006 65.96 2.67006V16.5401H66.81L69.22 12.5401ZM90.46 37.1701C91.92 37.8801 92.34 38.5301 92.34 39.5701C92.34 41.9201 90.22 43.0001 83.5 43.0001H79.74C75.33 43.0001 74.06 41.8201 74.06 37.8301V0.560059L81.2 1.36006C81.15 1.97006 80.73 2.49006 79.51 2.67006V16.4901H83.41L85.99 12.1701C85.99 12.1701 88.99 15.1701 90.55 17.1001C90.41 17.6201 89.94 17.8501 89.28 17.8501H79.51V36.1401C79.51 37.1401 79.88 37.5501 81.15 37.5501H84C85.08 37.5501 85.93 37.5501 86.49 37.5001C86.7179 37.4904 86.9399 37.4252 87.1369 37.3102C87.3338 37.1952 87.4996 37.0338 87.62 36.8401C88.18 36.0001 88.98 32.8401 89.73 30.0301H90.25L90.46 37.1701Z" fill="#009791"/>
<path d="M133.42 0.279785C133.42 0.279785 137.32 3.27979 139.71 5.27979C139.57 5.78979 139.01 6.02979 138.3 6.02979H119.3V14.5798C141.11 18.5298 138.62 31.7398 131.85 28.5798C129.17 24.1098 123.85 19.0898 119.3 15.6998V42.4898C119.3 42.9098 117.42 44.1798 114.51 44.1798H113.4V6.05978H95.68L95.3 4.69978H130L133.42 0.279785Z" fill="#009791"/>
<path d="M185.07 38.4401C186.57 41.0701 186.85 42.5301 186.07 43.2801C184.01 45.3901 180.57 43.5201 178.55 41.7801C176.732 40.1111 175.195 38.1593 174 36.0001C170.934 39.37 167.184 42.0463 163 43.8501L162.57 43.2901C166.594 40.4964 169.936 36.8324 172.35 32.5701C170.19 27.1701 169.25 20.5701 168.87 13.1601H142.77L142.4 11.8001H152.88V7.05009H145.31L144.93 5.7401H152.88V0.100098L159.88 0.710098C159.83 1.3701 159.46 1.8401 158.23 2.0201V5.7401H160.35L162.89 2.3501C162.89 2.3501 165.89 4.6601 167.54 6.3501C167.45 6.8701 166.98 7.1001 166.32 7.1001H158.23V11.8501H168.81C168.67 8.1401 168.62 4.24009 168.62 0.190094L175.76 0.950089C175.76 1.56009 175.34 2.07009 174.07 2.31009C174.02 5.60009 173.98 8.7901 174.07 11.8501H177.64L180 9.00009C179.699 8.89895 179.413 8.75768 179.15 8.58009C178.467 6.18199 177.134 4.01917 175.3 2.33009L175.67 2.04008C184.79 2.70008 184.67 7.87008 182.11 9.04008C183.33 9.98008 185.11 11.3901 186.48 12.4701C186.34 12.9901 185.82 13.2201 185.12 13.2201H174.12C174.22 17.4416 174.722 21.644 175.62 25.7701C176.761 22.6758 177.611 19.482 178.16 16.2301L185.02 18.1101C184.83 18.6701 184.46 19.0001 183.19 19.0501C181.96 23.413 180.108 27.5758 177.69 31.4101C178.619 33.3356 179.949 35.0404 181.59 36.4101C182.16 37.0701 182.48 37.0201 182.91 36.2201C183.908 34.3682 184.787 32.4543 185.54 30.4901L186.01 30.5801L185.07 38.4401ZM158.07 37.5501V42.5501C158.07 42.9801 155.81 44.0601 153.98 44.0601H153V37.5301H143.46L143.08 36.1601H153V32.6401H150V33.2501C150 33.6701 148 34.6101 146.2 34.6101H145.54V20.4901L150.24 22.3701H153V19.3101H144.35L144 18.0001H153V13.4901L159.29 14.1001C159.29 14.6101 158.92 14.9901 158.03 15.1001V18.0001H160.8L163.29 14.9401C163.29 14.9401 166.16 17.0601 167.94 18.6101C167.85 19.1301 167.38 19.3601 166.72 19.3601H158.03V22.4201H160.7L162.77 20.3001L167.1 23.5401C166.722 23.9265 166.226 24.1762 165.69 24.2501V32.4701C165.69 32.6101 165.22 32.9001 164.6 33.1801C165.08 33.5101 167.6 35.3901 169.26 36.8401C169.12 37.3601 168.65 37.6001 167.99 37.6001L158.07 37.5501ZM150 23.7301V26.7801H153V23.7301H150ZM153.06 31.3401V28.1501H150V31.3401H153.06ZM158.06 23.7301V26.7801H161.11V23.7301H158.06ZM161.11 28.1501H158.06V31.3401H161.11V28.1501ZM158.06 36.1501H162L164.49 33.1501C163.673 33.5046 162.799 33.7111 161.91 33.7601H161.11V32.6301H158.06V36.1501Z" fill="#009791"/>
</svg>
