<svg width="578" height="170" viewBox="0 0 578 170" fill="none" xmlns="http://www.w3.org/2000/svg">
<path d="M12.1835 3.12534C11.9624 3.5676 11.5202 3.78873 10.8568 3.78873C9.75123 6.44225 8.64563 8.65351 7.54003 10.8648L9.53011 11.5282C9.53011 11.7493 9.08787 11.9704 8.42452 12.1916V31.4296C8.42452 31.6507 6.65556 32.5352 5.10772 32.5352H4.44436V15.0662C3.11765 16.6141 1.79092 17.7197 0.464205 18.8254L0.0219727 18.6042C2.67541 14.4028 5.32884 7.99014 6.87668 1.35634L12.1835 3.12534ZM18.8171 15.9507C18.596 16.393 18.1538 16.6141 17.4904 16.6141C15.5003 21.0366 12.8469 24.7958 9.97235 27.007L9.53011 26.7859C11.2991 23.6901 13.068 19.0465 13.9525 14.4028L18.8171 15.9507ZM9.53011 15.7296C11.7413 12.4127 13.9525 7.10563 15.0581 1.79859L20.1439 3.56761C19.9227 4.00986 19.4805 4.23098 18.8171 4.23098C18.1538 5.55774 17.4904 6.8845 16.8271 8.21127H26.3352L28.3253 6.22112L31.8632 9.53802C31.6421 9.75915 31.1998 9.98029 30.5365 9.98029C29.4309 11.307 27.6619 13.2972 26.1141 14.4028L25.893 14.1817C26.1141 12.8549 26.5563 10.8648 26.7774 9.3169H16.3848C14.6159 12.1915 12.4047 14.4028 9.97235 16.1718L9.53011 15.7296ZM19.0383 9.53802L24.124 9.98029C24.124 10.4225 23.6818 10.6437 23.0184 10.8648V28.1127C23.0184 30.7662 22.355 32.3141 17.9327 32.7563C17.7115 31.4296 17.7115 30.5451 17.0482 29.8817C16.3848 29.2183 15.7215 28.776 13.9525 28.5549V28.1127C13.9525 28.1127 17.4904 28.3338 18.3749 28.3338C18.8171 28.3338 19.0383 28.1127 19.0383 27.6704V9.53802ZM24.5662 14.8451C34.9589 20.8155 31.8632 28.9972 28.1042 25.6803C27.6619 22.1423 25.893 18.162 24.3451 15.0662L24.5662 14.8451Z" fill="#1B3154"/>
<path d="M66.1366 7.32676C64.5888 7.76902 63.7043 9.3169 63.4832 10.6437C58.3974 9.53803 53.7539 6.88451 51.3216 3.78874C49.1104 6.00001 44.9091 8.21128 40.2656 9.98029L44.2458 11.5282H56.1862L57.9552 9.75915L61.4931 12.4127C61.4931 12.4127 61.0509 12.6338 60.6086 12.6338V16.1718C60.6086 16.393 59.9453 16.6141 59.0608 16.8352L61.272 19.2676C61.0509 19.4887 60.1664 19.4887 59.2819 19.0465C57.2918 19.2676 54.8595 19.4887 52.4272 19.7099V22.1423H57.2918L59.2819 19.931C59.2819 19.931 61.4931 21.4789 62.8198 22.5845C62.8198 23.0268 62.3776 23.0268 61.9353 23.0268H52.6483V25.4592H60.3875L62.3776 23.0268C62.3776 23.0268 64.5888 24.5747 65.9155 25.6803C65.9155 26.1225 65.4733 26.1225 65.031 26.1225H52.6483V28.1127C52.6483 30.5451 51.985 32.093 47.3415 32.5352C47.1203 31.4296 47.1203 30.5451 46.457 30.1028C46.0147 29.6606 45.1303 29.2183 43.1402 28.9972V28.5549C43.1402 28.5549 47.1203 28.7761 48.0048 28.7761C48.6682 28.7761 48.6682 28.5549 48.6682 28.1127V26.1225H35.401L35.1799 25.238H48.6682V22.8056H38.2755L38.0544 21.9211H48.6682V19.7099C45.1303 19.7099 41.5923 19.7099 38.2755 19.7099V19.0465C44.4669 18.6042 51.985 17.2775 56.8496 16.1718V15.7296H44.2458V16.6141C44.2458 17.0564 42.4768 17.7197 40.929 17.7197H40.4867V9.53803C38.7178 10.2014 36.9488 10.6437 35.1799 11.0859L34.9587 10.6437C40.7078 8.65352 46.8992 4.231 48.447 1.13522L53.7539 2.46198C53.7539 2.90423 53.3117 3.12535 52.2061 3.12535C55.5229 5.11549 61.7142 6.44227 66.3577 6.66339L66.1366 7.32676ZM44.0247 12.1916V15.0662H56.6285V12.1916H44.0247ZM51.7638 8.65352L53.5328 6.66339C53.5328 6.66339 55.5229 7.99015 56.6285 9.09578C56.6285 9.53804 56.1862 9.53803 55.744 9.53803H44.688L44.4669 8.65352H51.7638Z" fill="#1B3154"/>
<path d="M99.0834 19.0465C99.0834 19.4887 98.8623 19.7099 97.9778 19.931V31.6507C97.9778 31.8718 96.2089 32.5352 94.8822 32.5352H94.2188V29.6606H75.6448L74.3181 31.6507L70.3379 29.4394C70.559 29.2183 71.0012 28.776 71.4435 28.5549V18.6042L76.5292 19.0465C76.5292 19.4887 76.087 19.7098 75.2025 19.7098V28.7761H82.4995V15.5085H76.9715L75.8659 17.4986L72.1069 15.2873C72.328 15.0662 72.7702 14.6239 73.2125 14.1817V4.89436L78.0771 5.33661C78.0771 5.77886 77.6348 5.99999 76.7504 6.22112V14.6239H82.4995V1.79858L87.5852 2.24085C87.5852 2.6831 87.3641 3.12534 86.4796 3.12534V14.4028H92.4499V4.67324L97.3145 5.11549C97.3145 5.55774 97.0934 5.77887 96.2089 6V16.1718C96.2089 16.393 94.4399 17.0563 93.1132 17.0563H92.4499V15.0662H86.4796V28.3338H94.2188V18.162L99.0834 19.0465Z" fill="#1B3154"/>
<path d="M133.799 29.2183C134.684 30.7662 134.905 31.4296 134.463 31.8718C133.357 33.1986 131.146 32.093 129.819 30.9873C128.492 29.8817 127.608 28.7761 126.723 27.2282C124.512 29.6606 122.08 31.4296 118.984 32.5352L118.542 32.093C120.311 30.9873 121.859 29.4394 123.186 27.8916H116.552L115.446 29.4394L112.572 27.4493C112.793 27.2282 113.235 27.0071 113.677 26.7859V11.7493L116.773 13.2972H119.648L120.974 11.307C120.974 11.307 122.301 12.4127 123.186 13.2972C123.186 12.6338 123.186 11.7493 122.964 11.0859H112.351V17.2775C112.351 21.9211 112.13 28.1127 107.265 32.5352C109.034 29.2183 109.476 25.0169 109.697 21.0366H108.149C107.928 24.5747 107.265 28.5549 103.948 31.2085L103.506 30.7662C105.275 27.6704 105.496 24.1324 105.496 21.0366H103.948L103.727 20.1521H109.697C109.697 19.2676 109.697 18.3831 109.697 17.7197V17.0563H108.149L107.265 18.6042L104.39 16.6141C104.611 16.393 105.054 15.9507 105.496 15.7296V9.53803L109.476 9.98029C109.476 10.4225 109.034 10.6437 108.149 10.8648V16.1718H109.697V9.31691L113.235 10.6437H123.407C123.407 9.75916 123.407 8.87465 123.407 8.21127L127.829 8.65352C127.829 9.09577 127.387 9.53803 126.723 9.53803V10.4225H130.261L132.03 8.21127C132.03 8.21127 134.02 9.75915 135.126 10.8648C135.126 11.307 134.684 11.307 134.241 11.307H126.945C126.945 14.8451 127.166 18.162 128.05 21.0366C128.935 18.6042 129.819 16.1718 130.04 13.0761L134.463 14.624C134.241 15.0662 134.02 15.2873 133.136 15.2873C132.251 19.0465 130.925 22.1423 129.377 24.5747C130.04 25.9014 130.925 27.0071 132.03 27.8916C132.473 28.3338 132.694 28.3338 132.915 27.8916C133.357 27.2282 134.02 25.6803 134.463 24.3535H134.905L133.799 29.2183ZM103.948 4.89437H109.697L109.255 1.57747L114.12 2.01972C114.12 2.46197 113.898 2.6831 113.235 2.90423L113.456 4.89437H114.562L116.331 2.46198C116.331 2.46198 118.321 4.23098 119.426 5.33662C119.426 5.77887 118.984 5.77888 118.542 5.77888H113.456L113.677 7.76903C113.235 8.43241 111.687 8.87466 109.918 8.87466L109.697 6H104.169L103.948 4.89437ZM117.658 17.9409V14.4028H116.331V17.9409H117.658ZM120.532 19.0465H116.331V22.5845H120.532V19.0465ZM117.658 27.2282V23.469H116.331V27.2282H117.658ZM119.869 4.89437H123.628L124.07 1.57747L128.935 2.24086C128.935 2.68311 128.492 3.12535 127.608 3.12535L127.387 4.89437H129.377L131.146 2.46198C131.146 2.46198 133.136 4.23098 134.241 5.33662C134.241 5.77887 133.799 5.77888 133.357 5.77888H127.387L127.166 6.44225C132.694 6.8845 130.482 11.0859 128.05 9.53803C127.829 8.65352 127.387 7.76902 126.723 7.10564C125.839 7.54789 124.512 7.76902 123.186 7.32676L123.407 5.55776H120.09L119.869 4.89437ZM120.09 14.624V18.162H120.311L121.417 16.8352L123.849 18.6042C123.628 17.2775 123.407 15.7296 123.407 14.4028C123.186 14.4028 122.964 14.624 122.743 14.624H120.09ZM121.638 25.238C121.638 25.238 122.964 26.3437 124.07 27.4493C124.733 26.7859 125.176 25.9014 125.839 25.0169C125.176 23.0268 124.512 21.0366 124.07 18.8254C123.849 19.0465 123.628 19.0465 123.186 19.2676V23.469C123.186 23.6901 121.859 24.1324 120.974 24.1324H120.532V23.2479H120.09V27.007L121.638 25.238Z" fill="#1B3154"/>
<path d="M169.4 6C169.178 6.22113 168.736 6.44225 168.073 6.44225C167.409 7.10563 166.083 7.54789 165.198 7.99015L165.419 8.21127C165.419 8.65352 164.977 8.65352 164.535 8.65352H161.218V10.6437H163.65L165.198 8.87466C165.198 8.87466 166.746 9.98028 167.852 10.8648C167.852 11.307 167.409 11.307 166.967 11.307H161.218V14.8451H163.429V12.4127L167.188 12.6338C167.188 12.8549 166.967 13.2972 166.304 13.2972V16.1718C166.304 16.393 164.977 16.8352 163.872 16.8352H163.65L165.198 17.9409C164.977 18.162 164.756 18.3831 164.093 18.3831V27.4493C164.093 27.6704 162.545 28.3338 161.439 28.3338C172.495 29.4394 167.188 34.3042 164.093 32.093C162.545 30.9873 159.449 29.4394 155.469 28.5549V28.1127C157.238 28.1127 158.786 28.1127 160.113 28.3338V27.6704H149.72L153.037 30.1028C152.816 30.3239 152.152 30.5451 151.047 30.3239C147.951 31.6507 142.865 32.5352 138.001 32.7563L137.779 32.3141C141.981 31.4296 146.182 29.4394 148.614 27.6704H146.403V27.8916C146.403 28.1127 144.634 28.9972 143.086 28.9972H142.423V16.1718L141.096 16.6141C140.875 17.0563 140.654 17.2775 140.212 17.2775L138.443 13.9606C139.548 13.9606 141.538 13.7394 143.75 13.7394V11.7493H140.654L140.433 10.8648H143.75V8.87466H140.875C140.654 9.31691 140.212 9.53803 139.991 9.75915C138.885 10.2014 137.558 9.98029 137.116 8.87466C136.895 7.76902 137.558 6.8845 138.443 6.44225C139.548 6 140.433 4.67325 140.433 3.34649H140.875C141.096 4.00987 141.317 4.45211 141.317 5.11549H151.268L151.047 4.89437C151.268 3.78874 150.826 2.6831 150.162 2.01972L150.383 1.79859C155.469 1.57747 155.469 4.00986 154.142 5.11549H163.65L165.419 3.34649L169.4 6ZM157.901 8.65352H155.248C154.585 9.3169 153.7 9.98029 152.816 10.4225L152.373 10.2014C153.037 9.09578 153.921 7.32677 154.142 5.77888H142.202C142.202 6.66339 142.202 7.32677 141.981 7.76902H148.172L149.72 6C149.72 6 151.489 7.32676 152.373 8.21127C152.373 8.65352 151.931 8.65352 151.489 8.65352H147.73V10.6437H148.172L149.499 9.09578C149.499 9.09578 150.604 9.98028 151.71 10.8648V10.4225H157.901V8.65352ZM157.901 11.5282H151.931V11.307C151.71 11.5282 151.489 11.5282 151.268 11.5282H147.951V13.2972C149.499 13.0761 150.826 13.0761 152.373 12.8549V13.2972C150.383 13.9606 147.73 14.8451 143.971 15.7296L147.066 16.8352H154.585L151.268 15.0662C151.489 14.8451 151.931 14.4028 152.373 14.1817V11.7493L156.132 12.1916C156.132 12.4127 155.911 12.8549 155.248 12.8549V14.8451H157.68V11.5282H157.901ZM146.845 17.9409V20.1521H160.113V17.9409H146.845ZM146.845 23.469H160.113V21.2578H146.845V23.469ZM160.113 26.7859V24.5747H146.845V26.7859H160.113ZM154.806 17.0563H159.891L161.218 15.7296H155.69L154.806 17.0563ZM162.545 6C162.545 6 163.429 6.66338 164.314 7.32676C164.314 6.88451 164.535 6.22114 164.535 5.55776H154.806L157.901 6.44225C157.68 6.66338 157.459 6.88452 156.796 6.66339C156.575 6.88452 156.354 7.10563 156.132 7.32676H161.218L162.545 6ZM163.208 15.7296H162.103L163.208 16.6141V15.7296Z" fill="#1B3154"/>
<path d="M203.01 4.67325C202.789 4.89437 202.346 5.11549 201.683 5.33662V31.2085C201.683 31.4296 199.914 32.3141 198.587 32.3141H197.924V30.3239H177.36V31.2085C177.36 31.6507 176.033 32.5352 174.264 32.5352H173.822V2.24085L177.802 4.00986H197.703L199.472 2.01971L203.01 4.67325ZM197.924 29.4394V4.89437H177.36V29.4394H197.924ZM194.607 11.7493C194.607 11.7493 196.376 13.0761 197.703 14.1817C197.703 14.6239 197.261 14.6239 196.818 14.6239H178.687L178.466 13.7394H186.205V11.5282H184.436V11.9704C184.436 12.1915 183.109 12.8549 181.782 12.8549H181.34V5.77888L184.657 7.10564H191.069L192.617 5.55776L195.713 7.99015C195.492 8.21127 195.271 8.43239 194.607 8.43239V11.7493C194.386 11.9704 192.617 12.4127 191.733 12.4127H191.069V11.307H189.3V13.5183H193.059L194.607 11.7493ZM193.723 14.8451L196.818 17.0563C196.597 17.2775 196.155 17.4986 195.713 17.4986V27.007C195.713 27.2282 194.165 27.8916 193.059 27.8916H192.617V26.3437H183.109V27.4493C183.109 27.6704 181.782 28.5549 180.456 28.5549H180.013V15.0662L183.33 16.393H192.396L193.723 14.8451ZM192.396 25.6803V17.2775H182.888V25.6803H192.396ZM191.069 10.6437V8.21127H184.215V10.6437H191.069ZM191.954 19.7099C191.954 19.931 191.512 20.1521 191.069 20.1521V23.9113C191.069 24.1324 189.964 24.5747 189.079 24.5747H188.637V23.469H186.205V24.1324C186.205 24.3535 185.099 24.7958 184.215 24.7958H183.994V17.9409L186.426 19.0465H188.416L189.522 17.9409L191.954 19.7099ZM188.858 22.5845V20.1521H186.426V22.5845H188.858Z" fill="#1B3154"/>
<path d="M210.97 21.0366C213.181 19.931 214.066 18.3831 214.508 16.6141C212.739 15.9507 211.191 15.0662 211.191 13.2972C211.191 11.9704 212.297 10.8648 213.845 10.8648C215.392 10.8648 216.719 11.9704 216.719 14.1817C216.719 17.0563 215.392 20.3732 211.633 22.1423L210.97 21.0366Z" fill="#1B3154"/>
<path d="M238.61 23.6901C238.389 23.9113 237.947 24.1324 237.283 24.1324C237.062 28.5549 236.178 30.9873 234.851 31.8718C233.966 32.5352 232.64 32.7563 231.092 32.7563C231.092 31.8718 231.092 30.9873 230.429 30.5451C229.986 30.1028 228.881 29.6606 227.554 29.4394V28.9972C228.881 28.9972 231.092 29.2183 231.534 29.2183C231.976 29.2183 232.419 29.2183 232.64 28.9972C233.082 28.5549 233.524 26.7859 233.966 23.6901H230.429L229.102 25.238L226.006 23.0268C226.448 22.8056 226.891 22.5845 227.333 22.3634C227.554 20.5944 227.996 18.162 228.217 16.6141L231.755 18.162H233.745V13.9606H230.207C228.438 14.8451 226.669 15.5085 224.679 16.1718L224.458 15.7296C227.112 14.4028 229.544 12.6338 231.313 10.6437C230.65 10.8648 229.986 10.8648 229.323 10.2014C229.102 8.87466 227.996 7.32677 227.112 6.66339L227.333 6.44225C231.534 6.22112 232.861 7.76902 232.64 9.09578C233.524 7.76902 234.409 6.44225 234.851 5.11549H226.448L226.227 4.23098H234.851L237.062 2.24086L240.6 5.33662C240.379 5.55774 239.937 5.77888 239.273 5.77888C237.725 8.65353 235.293 11.307 231.976 13.0761H234.409L235.735 11.5282L238.389 14.1817C238.168 14.4028 237.725 14.6239 237.283 14.8451V19.931C237.283 19.931 235.735 20.5944 234.409 20.5944H233.524V19.4887H230.65C230.428 20.5944 230.207 21.9211 229.986 23.0268H233.303L235.072 21.2578L238.61 23.6901ZM254.973 7.54788C254.752 7.76901 254.531 7.99015 253.646 7.76903C252.54 8.21128 251.214 8.87465 249.666 9.53803C251.656 10.4225 253.646 11.0859 255.636 11.5282V11.9704C254.088 12.1915 252.983 13.5183 252.54 15.2873C251.656 14.8451 250.771 14.4028 249.887 13.9606C249.666 13.9606 249.666 13.9606 249.445 13.9606V17.0563C249.445 17.2775 249.445 17.4986 249.887 17.4986H250.329H250.993C251.214 17.4986 251.435 17.4986 251.656 17.4986C251.877 17.4986 252.098 17.4986 252.319 17.4986H252.54H252.762C253.646 17.9408 253.867 18.162 253.867 18.8254C253.867 20.1521 252.762 20.5944 249.887 20.5944H249.666L252.762 23.2479C252.54 23.469 252.098 23.6901 251.435 23.6901C250.772 24.7958 249.887 25.9014 248.781 27.007C253.867 29.8817 252.762 33.6408 249.887 32.7563C249.003 31.6507 247.676 30.3239 246.128 29.2183C243.475 30.9873 240.158 32.3141 236.62 33.1986L236.399 32.7563C239.494 31.6507 242.148 29.8817 244.138 27.6704C242.59 26.5648 240.821 25.6803 239.494 24.7958L239.716 24.3535C242.148 24.5747 244.138 25.0169 245.686 25.6803C246.349 25.0169 246.791 24.1324 247.234 23.2479H239.052L238.831 22.3634H247.455L249.224 20.5944H248.781C246.349 20.5944 246.128 19.931 246.128 17.9409V14.1817H243.475V14.8451C243.475 16.8352 242.811 19.931 237.725 21.4789L237.504 21.2578C239.716 19.2676 239.937 16.8352 239.937 14.8451V11.307L243.917 12.8549H245.686L246.791 11.7493C243.917 9.3169 241.927 6 240.6 1.79859L241.042 1.57747C241.927 3.34648 243.032 4.89437 244.359 6.22113C245.465 4.89437 246.57 3.12535 247.012 2.01972L250.772 4.45212C250.55 4.89438 250.329 4.89437 249.445 4.67325C248.339 5.33663 246.57 6.22114 245.022 6.66339C246.128 7.5479 247.234 8.21128 248.56 8.87466C249.445 7.5479 250.55 6 251.214 4.89437L254.973 7.54788Z" fill="#1B3154"/>
<path d="M271.115 21.7C268.903 23.2479 265.587 25.4592 260.722 28.3338C260.722 28.7761 260.28 29.2183 259.838 29.2183L258.069 24.7958C258.953 24.5747 260.501 24.1324 262.491 23.6901V15.0662H258.953L258.732 14.1817H262.491V5.77888H258.732L258.511 4.89437H265.808L267.798 2.24085C267.798 2.24085 270.009 4.23098 271.336 5.33662C271.336 5.77887 270.894 5.77888 270.451 5.77888H266.25V14.1817H266.692L268.24 11.5282C268.24 11.5282 270.009 13.2972 271.115 14.624C271.115 15.0662 270.672 15.0662 270.23 15.0662H266.25V22.8056C267.798 22.3634 269.346 21.9211 270.894 21.4789L271.115 21.7ZM289.025 28.3338C289.91 28.7761 290.131 29.2183 290.131 29.8817C290.131 31.4296 288.804 32.093 285.045 32.093H283.055C280.181 32.093 279.738 31.4296 279.738 28.9972V20.5944H278.19C277.527 27.4493 273.768 31.2085 264.702 32.7563L264.481 32.3141C270.672 30.1028 273.105 26.7859 273.768 21.9211C273.105 22.1423 272.441 22.3634 271.778 22.3634H271.115V2.46198L275.095 4.00986H282.613L284.382 2.01971L288.141 4.89437C287.92 5.1155 287.477 5.55776 286.593 5.55776V20.5944C286.593 20.8155 284.603 21.7 283.276 21.7H282.834V27.8916C282.834 28.3338 282.834 28.3338 283.497 28.3338H284.603H285.709C285.93 28.3338 286.151 28.3338 286.372 27.8916C286.593 27.4493 287.256 25.6803 287.699 23.6901H288.141L289.025 28.3338ZM275.537 4.89437V9.09578H283.497V4.89437H275.537ZM283.497 14.4028V9.98029H275.537V14.4028H283.497ZM275.537 15.2873V19.7099H283.497V15.2873H275.537Z" fill="#1B3154"/>
<path d="M305.388 18.6042C305.167 18.8253 304.946 18.8254 304.504 18.8254C303.398 21.2578 301.629 23.6901 299.197 25.6803C299.418 25.6803 299.639 25.9014 299.86 25.9014C302.514 28.1127 306.494 28.5549 313.569 28.5549C317.329 28.5549 320.645 28.5549 324.404 28.3338V28.7761C322.857 28.9972 321.972 30.5451 321.751 32.093H312.243C305.167 32.093 302.071 30.7662 299.197 27.2282C298.754 26.5648 298.312 26.7859 298.091 27.2282C297.428 28.3338 296.543 30.1028 295.88 31.6507C295.88 31.8718 295.88 32.093 295.659 32.3141L293.005 28.5549C294.332 27.8915 296.101 26.7859 297.207 25.9014C298.533 23.6901 299.86 20.8155 300.302 18.3831H298.312L296.986 19.4887L293.89 17.2775C294.111 17.0563 294.774 16.8352 295.217 16.6141C296.322 15.0662 297.649 12.8549 298.754 11.307H293.669L293.227 10.4225H298.754L300.523 8.65352L303.84 11.7493C303.619 11.9704 302.956 12.1916 302.071 12.1916C301.187 13.5183 299.86 15.9507 298.754 17.4986H300.302L302.292 15.5085L305.388 17.9409V17.0563L309.368 18.6042H316.444L318.213 16.6141L321.972 19.4887C321.751 19.7099 321.309 20.1521 320.645 20.1521V26.3437C320.645 26.5648 318.655 27.2282 317.55 27.2282H316.886V25.9014H309.368V26.3437C309.368 26.5648 307.599 27.4493 306.051 27.4493H305.609V18.6042H305.388ZM294.553 2.24086C304.061 2.68311 301.187 9.98028 297.428 7.54788C296.986 5.77887 295.659 3.56761 294.332 2.46198L294.553 2.24086ZM303.398 8.21127L303.177 7.32676H318.655L320.645 4.89437C320.645 4.89437 322.857 6.66339 324.404 7.76903C324.404 8.21128 323.962 8.21127 323.52 8.21127H303.398ZM317.771 8.65352C317.771 8.65352 319.982 10.4225 321.309 11.5282C321.309 11.9704 320.866 11.9704 320.424 11.9704H305.609L305.388 11.0859H315.781L317.771 8.65352ZM317.771 12.4127C317.771 12.4127 319.982 14.1817 321.309 15.2873C321.309 15.7296 320.866 15.7296 320.424 15.7296H305.609L305.388 14.8451H315.781L317.771 12.4127ZM309.368 1.57747C317.992 2.46198 314.896 9.09577 311.358 6.44225C311.137 4.67324 310.032 2.90423 308.926 1.57747H309.368ZM309.147 19.4887V24.7958H316.665V19.4887H309.147Z" fill="#1B3154"/>
<path d="M337.008 3.12534C336.787 3.5676 336.345 3.78873 335.682 3.78873C334.797 6.44225 333.913 9.09578 332.807 11.307L334.797 11.9704C334.797 12.1915 334.355 12.4127 333.691 12.6338V31.6507C333.691 31.8718 332.144 32.5352 330.817 32.5352H330.154V15.5085C329.269 16.6141 328.385 17.7197 327.5 18.8254L327.058 18.6042C329.269 14.1817 331.259 7.54789 332.144 1.35634L337.008 3.12534ZM355.582 6.88451C354.698 9.09578 353.371 10.8648 351.823 12.4127C353.813 13.0761 356.025 13.2972 358.457 13.5183V13.9606C356.909 14.6239 356.246 15.7296 356.025 17.4986C353.15 16.8352 350.718 15.7296 348.949 14.4028C346.516 15.9507 343.421 17.0563 340.104 17.7197L339.883 17.2775C342.978 16.1718 345.411 14.6239 347.401 13.076C346.074 11.9704 345.19 10.6437 344.305 9.09578C342.757 10.8648 340.988 12.1916 339.219 13.2972V25.9014C339.219 26.1225 337.672 26.7859 336.345 26.7859H335.682V6.88451L340.325 7.32675C340.325 7.76901 339.883 7.99014 339.219 8.21127V12.1916C341.21 9.53803 343.2 5.55774 344.305 1.57746L349.17 3.34648C348.949 3.78874 348.506 4.00985 347.843 4.00985C347.401 4.67323 347.18 5.33662 346.737 6H352.929L354.919 3.34648C354.919 3.34648 357.13 5.11548 358.457 6.44224C358.457 6.8845 358.015 6.88451 357.572 6.88451H355.582ZM354.256 17.7197C354.256 17.7197 356.467 19.4887 357.793 20.5944C357.793 21.0366 357.351 21.0366 356.909 21.0366H350.275V31.8718C350.275 32.0929 348.728 32.9775 347.18 32.9775H346.516V24.5746C346.295 24.5746 346.074 24.7958 345.632 24.7958C343.863 27.2282 340.988 29.8817 337.672 31.4296L337.45 30.9873C339.883 28.5549 341.652 25.0169 342.536 22.3634L346.737 24.1324V21.2577H340.546L340.325 20.3732H346.737V16.8352L351.823 17.2775C351.823 17.7197 351.381 18.162 350.497 18.162V20.3732H352.708L354.256 17.7197ZM345.853 6.88451C345.411 7.32676 345.19 7.99013 344.747 8.43239C345.853 9.75915 347.18 10.6437 348.949 11.5282C350.054 10.2014 350.939 8.65352 351.381 7.10563H345.853V6.88451ZM350.718 22.8056C360.889 25.238 358.236 32.7563 354.477 30.1028C354.034 27.6704 352.044 24.7958 350.497 23.0268L350.718 22.8056Z" fill="#1B3154"/>
<path d="M370.619 26.3437C372.166 25.9014 373.935 25.6803 375.704 25.238L375.925 25.6803C373.272 27.2282 369.292 29.2183 363.764 31.6507C363.543 32.093 363.322 32.3141 362.879 32.5352L361.11 28.3338C361.553 28.3338 362.216 28.1127 363.1 27.8916V15.9507L366.859 16.1718C366.859 16.393 366.638 16.8352 366.196 16.8352V27.2282L367.523 27.007V12.8549H366.638V13.2972C366.638 13.5183 365.533 14.1817 363.985 14.1817H363.322V2.24086L367.081 3.78874H370.619L372.166 2.01972L375.483 4.67325C375.262 4.89437 374.82 5.11549 374.156 5.33662V12.8549C374.156 13.0761 372.387 13.7394 371.282 13.7394H370.619V18.162H371.061L372.83 15.5085C372.83 15.5085 374.82 17.2775 375.704 18.3831C375.704 18.8254 375.262 18.8254 374.82 18.8254H370.619V26.3437ZM366.417 11.9704H370.619V4.89437H366.417V11.9704ZM390.74 7.10564C390.519 7.54789 390.077 7.54788 389.414 7.54788C388.308 9.98028 386.981 12.1915 384.991 13.9606C387.202 15.2873 389.856 16.1718 392.952 16.8352V17.0563C391.404 17.7197 390.519 18.8254 390.298 20.5944C389.635 20.3732 388.75 19.931 388.087 19.7099L390.298 21.2578C390.077 21.4789 389.856 21.7 388.971 21.9211V31.6507C388.971 31.8718 387.645 32.5352 385.876 32.5352H385.212V30.3239H379.463V31.8718C379.463 32.093 378.358 32.7563 376.368 32.7563H375.704V20.3732C374.599 20.8155 373.493 21.2577 372.387 21.4789L372.166 21.0366C375.925 19.2676 379.021 16.8352 381.232 13.9606C380.348 12.6338 379.684 11.3071 379.021 9.98029C377.473 11.7493 375.704 13.0761 373.935 14.1817L373.493 13.9606C375.925 11.0859 378.137 6.66338 379.021 1.57747L383.886 3.12535C383.665 3.5676 383.222 3.78874 382.559 3.78874C382.338 4.45212 381.896 5.33662 381.453 6H384.991L386.981 4.00986L390.74 7.10564ZM386.76 19.0465C385.212 18.162 384.107 17.0563 383.001 15.9507C381.232 17.4986 379.242 18.8253 376.81 19.7099L379.684 20.8155H384.991L386.76 19.0465ZM385.434 29.2183V21.7H379.463V29.2183H385.434ZM381.453 6.88451C381.011 7.76902 380.569 8.4324 379.906 9.09578C380.569 10.2014 381.674 11.3071 382.78 12.1916C383.886 10.4225 384.77 8.65353 385.434 6.88451H381.453Z" fill="#1B3154"/>
<path d="M398.922 23.0268C400.249 26.3437 400.027 28.9972 398.922 30.3239C398.258 31.2084 396.49 31.2085 396.047 30.1028C395.605 28.9972 396.047 28.1127 396.932 27.4493C397.595 26.5648 398.701 24.5746 398.48 23.0268H398.922ZM426.783 20.1521C426.562 20.3732 426.12 20.5944 425.456 20.3732C424.572 21.0366 422.803 21.9211 421.476 22.5845C423.245 24.7958 425.235 26.1225 427.446 27.007V27.4493C426.12 27.6704 425.014 28.9972 424.572 30.7662C421.697 27.8915 419.928 24.5747 418.823 18.8254V28.5549C418.823 30.7662 418.159 32.5352 414.4 32.7563C414.4 31.6507 414.179 30.9873 413.737 30.3239C413.295 29.8817 412.631 29.4394 411.083 29.2183V28.7761C411.083 28.7761 413.958 28.9972 414.621 28.9972C415.064 28.9972 415.285 28.7761 415.285 28.3338V20.3732C413.958 24.5746 411.083 28.7761 406.219 31.2085L405.998 30.7662C409.314 28.1127 411.083 24.1324 411.968 20.1521H408.209V19.931C408.209 21.4789 406.661 22.1423 405.555 21.0366C405.555 20.5944 405.555 20.1521 405.334 19.4887C403.565 20.1521 401.354 21.0366 398.922 21.9211C398.701 22.1422 398.258 22.5845 398.037 22.5845L396.711 18.6042C396.711 18.6042 397.595 18.3831 397.816 18.162C399.364 17.0563 401.133 14.6239 402.46 12.4127C401.354 12.8549 400.249 13.2972 399.143 13.7394C398.922 14.1817 398.48 14.4028 398.258 14.6239L396.711 10.6437C396.711 10.6437 397.374 10.4225 397.595 10.2014C399.143 8.4324 401.354 3.78874 402.017 1.35634L406.44 3.56761C406.219 3.78874 405.998 4.00986 405.334 4.00986C404.008 6.22112 401.354 8.87464 399.364 10.8648C400.691 10.8648 402.018 10.8648 403.786 10.8648C404.45 9.75915 404.892 8.65353 405.334 7.76902L409.314 10.4225C409.093 10.6437 408.651 10.8648 407.988 10.6437C406.219 13.0761 402.902 16.393 399.806 18.6042C401.354 18.6042 403.344 18.3831 405.555 18.162C405.113 17.0563 404.671 15.9507 404.229 15.0662L404.671 14.8451C407.103 15.9507 408.209 17.4986 408.651 18.8254H412.41L414.179 17.0563L416.169 18.6042V15.5085H413.737V16.1718C413.737 16.393 412.631 17.0563 411.083 17.0563H410.42V4.00986L414.179 5.33661H415.506C415.727 4.00985 415.727 2.24084 415.948 0.914078L421.255 1.79859C421.255 2.24084 420.813 2.6831 419.928 2.6831C419.265 3.34648 417.938 4.67325 416.833 5.55775H421.918L423.466 3.56761L426.783 6C426.562 6.22113 426.12 6.44226 425.456 6.66339V15.7296C425.456 15.9507 424.351 16.6141 422.582 16.6141H421.918V15.5085H419.707V17.0563C420.149 19.0465 421.034 20.5944 421.918 21.9211C422.803 20.3732 423.687 18.3831 424.129 17.2775L426.783 20.1521ZM401.575 22.5845C407.103 26.7859 403.344 31.4296 401.354 28.7761C401.796 26.7859 401.575 24.3535 401.133 22.5845H401.575ZM404.671 21.9211C411.083 24.1324 408.209 28.9972 405.777 26.7859C405.777 25.238 405.113 23.2479 404.229 22.1423L404.671 21.9211ZM412.852 6.88451V10.4225H421.034V6.88451H412.852ZM421.034 15.0662V11.5282H412.852V15.0662H421.034Z" fill="#1B3154"/>
<path d="M443.809 15.2873C443.588 15.5084 443.146 15.7296 442.482 15.5085C441.598 16.1718 440.713 17.0563 439.608 17.4986C444.694 20.1521 442.04 24.3535 439.608 22.1423C439.387 20.5944 438.502 19.0465 437.839 17.7197V31.6507C437.839 31.8718 436.733 32.7563 434.964 32.7563H434.301V19.7099C432.974 20.8155 431.869 21.9211 430.321 22.5845L430.1 22.3634C433.195 19.0465 436.07 13.9606 437.397 9.98029H430.542L430.321 9.09578H437.397L439.387 7.10564L442.703 10.2014C442.482 10.4225 442.04 10.6437 441.156 10.6437C440.492 12.4127 439.387 14.1817 438.06 15.7296V16.6141C438.502 16.6141 438.723 16.8352 438.944 16.8352C439.608 15.7296 440.271 14.1817 440.713 12.6338L443.809 15.2873ZM432.753 1.79859C441.819 2.24085 438.723 9.09579 435.185 6.66339C434.743 4.89438 433.638 3.12535 432.532 1.79859H432.753ZM460.172 21.9211C459.951 22.3634 459.509 22.3634 458.845 22.3634C457.74 24.3535 456.192 25.9014 454.423 27.2282C456.855 28.1127 459.287 28.5549 461.72 28.7761V29.2183C460.172 29.4394 459.066 30.7662 458.624 32.5352C455.75 31.6507 453.317 30.7662 451.106 29.2183C448.01 30.7662 444.472 31.8718 440.271 32.5352L440.05 32.093C443.588 30.9873 446.684 29.6606 449.116 27.8916C448.01 27.007 447.126 25.9014 446.241 25.0169C444.915 26.1225 443.588 27.2282 442.261 28.1127L441.819 27.8916C442.925 26.5648 444.03 25.0169 444.915 23.2479C444.251 22.1423 443.809 21.0366 443.367 19.931L443.809 19.7099C444.251 20.5944 444.915 21.4789 445.578 22.1423C446.02 21.0366 446.684 19.7099 446.905 18.6042C446.462 18.8253 445.799 18.8254 445.357 18.8254H444.915V10.6437C444.03 11.5282 443.146 12.1915 442.261 12.8549L441.819 12.6338C443.588 9.98028 445.136 5.77888 445.799 1.57747L450.885 3.12535C450.664 3.5676 450.443 3.78874 449.558 3.78874C449.337 4.45212 448.895 4.89438 448.674 5.55776H455.528L457.518 2.6831C457.518 2.6831 459.951 4.67325 461.277 5.77888C461.277 6.22113 460.835 6.22113 460.393 6.22113H448.01C447.568 6.88451 447.126 7.54789 446.684 8.21127L448.453 8.87466H455.086L456.855 7.10564L460.393 9.75915C460.172 9.98028 459.73 10.2014 459.066 10.4225V17.2775C459.066 17.4986 457.297 18.162 456.192 18.162H455.528V17.0563H448.453V17.2775L452.212 18.162C452.212 18.6042 451.769 18.6042 451.106 18.6042C450.664 19.2676 450.443 19.7099 450 20.3732H455.086L457.297 18.3831L460.172 21.9211ZM448.895 21.9211C448.453 22.5845 447.789 23.2479 447.347 23.9113C448.453 24.7958 450 25.6803 451.327 26.3437C452.654 25.0169 453.759 23.6901 454.644 21.9211H448.895ZM448.231 9.98029V12.6338H455.307V9.98029H448.231ZM455.528 16.6141V13.7394H448.453V16.6141H455.528Z" fill="#1B3154"/>
<path d="M471.891 8.43238C471.67 8.87464 471.449 9.09577 470.564 9.09577C470.343 9.75915 470.122 10.4225 469.901 11.0859C474.987 12.4127 472.333 16.393 470.122 14.4028C470.122 13.7394 469.68 12.8549 469.459 11.9704C468.353 14.1817 466.805 15.9507 465.037 17.0563L464.594 16.8352C466.363 14.4028 467.469 11.0859 467.911 7.32675L471.891 8.43238ZM492.676 26.5648C492.676 26.5648 494.667 28.3338 495.993 29.4394C495.993 29.8817 495.551 29.8817 495.109 29.8817H483.832V31.4296C483.832 31.6507 482.726 32.5352 480.957 32.5352H480.294V19.931C480.073 19.931 480.073 19.931 479.851 19.931H474.323V31.4296C474.323 31.6507 472.776 32.3141 471.228 32.3141H470.564V22.1423C470.343 22.1423 470.122 22.1423 469.901 22.1423C468.795 25.4592 467.248 28.1127 465.037 29.6605L464.594 29.4394C465.7 27.007 466.584 23.6901 467.027 20.3732L470.564 21.2577V19.7098H465.037L464.815 18.8254H470.564V15.2873L475.429 15.7296C475.429 16.1718 475.208 16.393 474.323 16.6141V18.8254H475.65L477.419 16.3929C477.419 16.3929 478.967 17.7197 480.294 18.8254V12.8549C479.852 13.5183 479.188 14.1817 478.525 14.8451L478.304 14.6239C477.861 15.2873 476.977 15.5084 476.092 14.6239C476.092 13.7394 475.871 12.6338 475.429 11.7493C474.545 13.076 473.439 14.4028 472.112 15.2873L471.67 15.0662C472.776 13.076 473.66 10.2014 473.881 7.10563L478.083 7.99014C477.861 8.43239 477.64 8.65351 476.977 8.65351C476.756 9.31689 476.535 9.98027 476.092 10.6437C477.64 11.307 478.304 12.4127 478.304 13.2972C479.852 9.53803 480.515 4.45211 480.957 1.13521L485.601 2.46197C485.379 2.01971 485.158 1.35632 484.937 0.914071L485.158 0.692947C493.119 3.12534 489.36 9.31689 486.264 6.44224C486.264 5.33661 486.043 4.00985 485.601 2.90421C485.379 3.12534 485.158 3.12534 484.716 3.12534C484.274 4.4521 483.61 5.99999 482.947 7.32675L483.611 7.54787H490.023L492.234 5.99999C492.234 5.99999 494.224 7.76901 495.551 8.87465C495.551 9.3169 495.109 9.31689 494.667 9.31689H489.581V15.0662H490.023L491.792 12.6338C491.792 12.6338 493.782 14.4028 494.888 15.5084C494.888 15.9507 494.445 15.9507 494.003 15.9507H489.802V21.9211H490.244L492.013 19.4887C492.013 19.4887 494.003 21.0366 495.109 22.1423C495.109 22.5845 494.666 22.5845 494.224 22.5845H490.023V28.7761H491.35L492.676 26.5648ZM464.815 6.44224H472.333C471.891 6.44224 471.449 6.22112 471.007 5.77887C471.007 4.23098 470.122 2.68309 469.238 1.57746L469.459 1.35633C475.65 2.24084 474.545 5.99999 472.555 6.22112H475.208L476.977 3.78873C476.977 3.78873 478.967 5.55775 480.294 6.66338C480.294 7.10563 479.852 7.10563 479.409 7.10563H464.815V6.44224ZM474.766 21.2577C482.063 24.7958 478.746 30.5451 476.092 27.8915C476.314 25.6803 475.429 23.0268 474.323 21.4789L474.766 21.2577ZM483.611 9.31689V15.0662H486.264V9.31689H483.611ZM486.264 16.1718H483.611V22.1423H486.264V16.1718ZM483.611 28.9972H486.264V22.8056H483.611V28.9972Z" fill="#1B3154"/>
<path d="M527.613 27.4493C527.613 27.4493 529.382 28.9972 530.488 30.1028C530.488 30.5451 530.046 30.5451 529.603 30.5451H519.432V31.6507C519.432 31.8718 518.326 32.7563 516.557 32.7563H515.894V13.9606C515.452 14.4028 515.231 14.8451 514.789 15.2873L514.346 15.0662C514.567 14.6239 514.789 14.1817 514.789 13.7394C514.567 13.7394 514.346 13.9606 513.904 13.9606V18.3831C513.904 18.3831 513.241 18.8254 511.914 19.0465C512.577 19.4887 513.683 20.3732 514.346 21.2578C514.346 21.7 513.904 21.7 513.462 21.7H508.155C507.934 22.5845 507.713 23.469 507.492 24.3535H510.587L512.356 22.1423C512.356 22.1423 514.346 23.6901 515.452 24.7958C515.452 25.238 515.01 25.238 514.567 25.238H507.049L506.828 25.6803C515.673 27.2282 513.462 33.6408 510.145 31.6507C509.703 29.6606 508.155 27.6704 506.607 26.3437C505.28 28.7761 502.848 31.2085 498.426 32.9775L497.983 32.7563C501.079 30.5451 502.848 28.1127 503.733 25.4592H498.426L498.205 24.5747H504.175C504.396 23.6901 504.617 22.8056 504.617 21.9211H499.531L499.31 21.0366H504.838C504.838 20.1521 505.059 19.4887 505.059 18.6042H502.848V19.0465C502.848 19.2676 501.742 19.7099 500.195 19.7099H499.752V11.7493L503.29 13.0761H505.059V10.4225H504.838V10.8648C504.838 11.0859 503.511 11.7493 502.185 11.7493H501.521V6.88451H498.426L498.205 6H501.521V1.57747L505.723 2.01972C505.723 2.46197 505.501 2.6831 504.617 2.6831V5.55776H508.155V1.57747L512.356 2.01972C512.356 2.46197 511.914 2.6831 511.251 2.90423V5.33662L512.577 3.78874C512.577 3.78874 514.567 5.33662 515.673 6.44225C515.673 6.8845 515.231 6.88451 514.789 6.88451H511.472V10.4225C511.472 10.6437 509.924 11.5282 508.818 11.5282H508.376V10.6437V13.2972H510.366L511.914 11.5282L514.789 13.5183C515.894 10.2014 516.779 6 517 2.01972L521.201 3.12535C521.201 2.90422 520.98 2.68311 520.98 2.46198L521.422 2.24086C528.94 5.1155 524.96 10.6437 522.085 7.76903C522.085 6.44226 521.864 5.1155 521.422 3.78874C521.201 4.00986 520.98 4.00986 520.538 4.00986C520.095 5.77887 519.432 7.32677 518.769 8.87466L519.432 9.09578H525.181L526.729 7.10564C526.729 7.10564 528.498 8.65352 529.603 9.53803C529.603 9.98028 529.161 9.98029 528.719 9.98029H525.402V15.5085H525.623L526.95 13.5183C526.95 13.5183 528.498 15.0662 529.382 15.9507C529.382 16.393 528.94 16.393 528.498 16.393H525.402V22.1423H525.844L527.171 20.1521C527.171 20.1521 528.719 21.7 529.603 22.5845C529.603 23.0268 529.161 23.0268 528.719 23.0268H525.402V29.6606H526.066L527.613 27.4493ZM503.29 17.2775H505.501V13.7394H503.29V17.2775ZM505.28 9.31691H508.818V6.66339H505.28V9.31691ZM511.472 19.0465H510.808V18.3831H508.597C508.597 19.2676 508.597 19.931 508.376 20.8155H509.924L511.472 19.0465ZM508.818 13.7394V17.2775H511.029V13.7394H508.818ZM519.432 9.75915V15.2873H522.307V9.75915H519.432ZM522.307 16.1718H519.432V21.9211H522.307V16.1718ZM519.432 29.6606H522.307V23.0268H519.432V29.6606Z" fill="#1B3154"/>
<path d="M535.574 7.99015C536.9 11.5282 536.679 14.4028 535.795 15.9507C535.131 17.0563 533.583 17.0563 532.92 16.1718C532.478 15.2873 532.699 14.4028 533.583 13.7394C534.468 12.6338 535.131 10.2014 534.91 7.99015H535.574ZM541.102 6.66339C546.63 8.65353 543.755 12.6338 541.765 10.6437C541.765 9.53803 541.323 7.99014 540.88 7.10564V31.6507C540.88 31.8718 539.333 32.7563 538.006 32.7563H537.342V1.57747L541.986 2.01972C541.986 2.46197 541.765 2.90423 540.88 2.90423V6.66339H541.102ZM560.781 28.5549C560.781 28.5549 562.992 30.1028 564.54 31.4296C564.54 31.8718 564.098 31.8718 563.656 31.8718H542.207L541.986 30.9873H551.052V27.6704H543.976L543.755 26.7859H551.052V23.6901H548.177V23.9113C548.177 24.3535 546.629 25.0169 545.082 25.0169H544.639V13.7394L548.398 15.2873H551.273V13.2972H543.313L543.092 12.4127H551.494V10.8648C549.504 10.8648 547.514 10.8648 545.745 10.6437V9.98029C550.831 9.53804 556.801 8.4324 560.118 7.10564L563.213 9.98029C562.992 10.2014 562.55 10.2014 562.108 10.2014C562.771 10.6437 564.098 11.7493 564.982 12.6338C564.982 13.0761 564.54 13.0761 564.098 13.0761H555.253V15.0662H558.128L559.897 13.2972L563.435 15.9507C563.214 16.1718 562.771 16.393 562.329 16.6141V23.469C562.329 23.6901 560.56 24.3535 559.233 24.3535H558.57V23.6901H555.474V26.7859H558.128L560.118 24.5747C560.118 24.5747 562.329 26.1225 563.656 27.2282C563.656 27.6704 563.213 27.6704 562.771 27.6704H555.695V30.9873H559.897L560.781 28.5549ZM542.87 5.11549H546.187L545.745 1.79859L549.946 2.01972C549.946 2.46197 549.725 2.6831 548.841 2.90423L549.062 5.11549H549.283L550.831 3.12535C550.831 3.12535 552.6 4.45212 553.484 5.55776L553.263 5.11549H555.917L556.359 1.79859L560.339 2.46198C560.339 2.90423 559.897 3.12536 559.012 3.34649L558.791 5.11549H559.676L561.223 3.12535C561.223 3.12535 562.992 4.45212 563.877 5.55776C563.877 6.00001 563.435 6 562.992 6H558.57L558.349 6.88451C557.685 7.32677 556.58 7.54789 555.474 7.32676L555.695 6H553.484L553.263 5.55776C553.263 6.00001 552.821 6 552.379 6H549.062L549.283 8.21127C548.841 8.87465 547.735 9.09578 546.187 9.09578L545.745 6.22113H543.092L542.87 5.11549ZM547.956 15.9507V18.8254H550.831V15.9507H547.956ZM550.831 22.5845V19.931H547.956V22.5845H550.831ZM554.59 12.1916H559.233L560.781 10.2014H560.56C558.791 10.4225 556.801 10.6437 554.59 10.6437V12.1916ZM554.59 15.9507V18.8254H557.686V15.9507H554.59ZM557.686 22.5845V19.931H554.59V22.5845H557.686Z" fill="#1B3154"/>
<path d="M572.058 21.0366C574.27 19.931 575.154 18.3831 575.596 16.6141C573.827 15.9507 572.279 15.0662 572.279 13.2972C572.279 11.9704 573.385 10.8648 574.933 10.8648C576.481 10.8648 577.807 11.9704 577.807 14.1817C577.807 17.0563 576.481 20.3732 572.722 22.1423L572.058 21.0366Z" fill="#1B3154"/>
<path d="M27.4408 71.2324C27.4408 71.2324 30.0942 73.2225 31.8632 74.7704C31.8632 75.2127 31.4209 75.2127 30.9787 75.2127H0.906419L0.685303 74.3282H5.54994V56.8591L10.8568 57.3014C10.8568 57.7436 10.6357 58.1859 9.53009 58.1859V74.107H14.6158V50.2253H2.67537L2.45426 49.3408H23.9029L26.3352 46.2451C26.3352 46.2451 28.9886 48.2352 30.5364 49.562C30.5364 50.0042 30.0942 50.0042 29.652 50.0042H19.0382V60.6183H23.0184L25.2296 57.7437C25.2296 57.7437 27.883 59.7338 29.4309 61.0606C29.4309 61.2817 28.9886 61.5028 28.5464 61.5028H19.0382V73.8859H25.2296L27.4408 71.2324Z" fill="#1B3154"/>
<path d="M66.1368 53.5423C65.9157 53.7634 65.4735 53.9845 64.8101 53.9845C63.7045 54.869 61.4933 55.9747 60.1666 56.4169L59.9455 56.1958C60.1666 55.3113 60.3877 54.2056 60.6089 53.1H40.2658C40.487 55.5324 39.8236 57.0803 38.4969 57.9648C37.3913 58.6282 35.8435 58.407 35.4012 57.0803C34.959 55.9747 35.6223 54.869 36.7279 54.4268C37.8335 53.7634 39.1602 52.2155 38.9391 50.4465H39.3814C39.6025 51.1099 39.8236 51.7732 40.0447 52.4366H48.4473V45.8028L53.533 46.2451C53.533 46.6873 53.3119 46.9085 52.4274 47.1296V52.2155H54.4175C55.0809 50.4465 55.9653 48.0141 56.4076 46.2451L61.7145 47.793C61.4933 48.2352 61.2722 48.4563 60.3877 48.4563C59.061 49.562 57.2921 50.8887 55.302 51.9944H60.1666L62.3778 49.7831L66.1368 53.5423ZM59.2821 62.8296L62.8201 65.4831C62.5989 65.7042 62.1567 65.9254 61.4933 66.1465V75.6549C61.4933 75.8761 59.5033 76.5394 58.3977 76.5394H57.7343V74.5493H43.1404V75.6549C43.1404 76.0972 41.3714 76.9817 39.8236 76.9817H39.1602V63.0507L43.3615 64.8197H57.2921L59.2821 62.8296ZM40.7081 46.4662C49.3318 47.5718 46.2361 53.9845 42.9193 51.5521C42.6982 49.7831 41.5926 47.793 40.487 46.4662H40.7081ZM55.0809 62.8296V61.5028H45.7938V62.1662C45.7938 62.3873 44.0249 63.2718 42.477 63.2718H42.0348V54.2056L46.0149 55.7535H54.6386L56.4076 53.9845L59.9455 56.638C59.7244 56.8592 59.2821 57.0803 58.8399 57.3014V61.9451C58.8399 62.1662 56.8498 62.8296 55.7442 62.8296H55.0809ZM43.1404 65.4831V69.0211H48.4473V65.4831H43.1404ZM43.1404 73.6648H48.4473V70.1268H43.1404V73.6648ZM55.0809 60.6183V56.8592H45.7938V60.6183H55.0809ZM52.2063 65.4831V69.0211H57.7343V65.4831H52.2063ZM57.7343 73.6648V70.1268H52.2063V73.8859H57.7343V73.6648Z" fill="#1B3154"/>
<path d="M80.9516 47.3507C80.7305 47.793 80.2883 48.0141 79.6249 48.0141C78.5193 50.6676 77.4137 52.8789 76.3081 55.0901L78.2982 55.7535C78.2982 55.9747 77.8559 56.1958 77.1926 56.4169V75.6549C77.1926 75.8761 75.4236 76.7606 73.8758 76.7606H73.2124V59.2915C71.8857 60.8394 70.559 61.9451 69.2323 63.0507L68.79 62.8296C71.4435 58.6282 74.0969 52.2155 75.6447 45.5817L80.9516 47.3507ZM87.3641 60.1761C87.143 60.6183 86.7007 60.8394 86.0374 60.8394C84.0473 65.262 81.3939 69.0211 78.5193 71.2324L78.0771 71.0113C79.846 67.9155 81.615 63.2718 82.4994 58.6282L87.3641 60.1761ZM78.2982 59.9549C80.5094 56.638 82.7206 51.331 83.8262 46.0239L88.9119 47.793C88.6908 48.2352 88.2486 48.4563 87.5852 48.4563C86.9218 49.7831 86.2585 51.1099 85.5951 52.4366H95.1033L97.0934 50.4465L100.631 53.7634C100.41 53.9845 99.9679 54.2056 99.3046 54.2056C98.199 55.5324 96.43 57.5225 94.8822 58.6282L94.661 58.407C94.8821 57.0803 95.3244 55.0901 95.5455 53.5423H85.1529C83.1628 56.1958 80.9516 58.407 78.7404 60.1761L78.2982 59.9549ZM87.8063 53.7634L92.8921 54.2056C92.8921 54.6479 92.4498 54.869 91.7865 55.0901V72.338C91.7865 74.9916 91.1231 76.5394 86.7007 76.9817C86.4796 75.6549 86.4796 74.7704 85.8162 74.1071C85.1529 73.4437 84.4895 73.0014 82.7206 72.7803V72.338C82.7206 72.338 86.2585 72.5592 87.143 72.5592C87.5852 72.5592 87.8063 72.338 87.8063 71.8958V53.7634ZM93.3343 59.0704C103.727 65.0408 100.631 73.2225 96.8722 69.9056C96.43 66.3676 94.661 62.3873 93.1132 59.2915L93.3343 59.0704Z" fill="#1B3154"/>
<path d="M103.727 50.6676C111.908 50.6676 109.255 56.8592 106.159 54.869C105.717 53.3211 104.611 51.7732 103.506 50.8887L103.727 50.6676ZM130.704 65.4831C130.704 65.4831 133.136 67.2521 134.684 68.5789C134.684 69.0211 134.241 69.0211 133.799 69.0211H121.195V75.8761C121.195 76.0972 119.426 76.7606 117.879 76.7606H117.215V69.0211H104.169L103.948 68.1366H117.436V64.8197L122.301 65.262C122.301 65.4831 122.08 65.9254 121.417 65.9254V67.9155H128.713L130.704 65.4831ZM105.717 59.0704C106.38 59.0704 106.38 59.0704 106.823 58.407C107.707 57.5225 107.707 57.5225 113.456 49.3408L113.898 49.562C112.793 51.9944 110.361 56.638 109.918 57.7437C109.697 58.407 109.255 59.5127 109.255 59.9549C109.255 61.0606 110.582 61.9451 110.361 64.1563C110.361 65.4831 109.476 66.1465 107.707 66.1465C107.044 66.1465 106.38 65.7042 106.159 64.8197C106.602 62.1662 106.38 60.1761 105.717 59.9549C105.275 59.7338 104.833 59.5127 104.169 59.5127V59.0704H105.717ZM106.38 46.0239C114.562 46.0239 112.351 52.2155 109.034 50.4465C108.592 48.8986 107.265 47.1296 105.938 46.2451L106.38 46.0239ZM110.803 56.638C112.793 53.9845 114.562 49.7831 115.446 45.5817L120.311 47.3507C120.09 47.793 119.869 48.0141 118.984 48.0141C118.542 48.8986 118.1 49.562 117.658 50.4465H117.879H123.628C123.407 50.4465 123.186 50.2254 122.964 50.0042C122.743 48.4563 121.859 46.9084 121.195 46.0239L121.417 45.8028C127.387 46.2451 127.166 49.7831 125.176 50.4465H128.271L130.261 48.0141C130.261 48.0141 132.473 49.7831 134.02 50.8887C134.02 51.331 133.578 51.331 133.136 51.331H126.06V54.6479H128.271L130.04 52.2155C130.04 52.2155 132.03 53.7634 133.357 54.869C133.357 55.3113 132.915 55.3113 132.473 55.3113H126.06V58.407H128.271L130.04 55.9746C130.04 55.9746 132.03 57.7437 133.357 58.8493C133.357 59.2916 132.915 59.2915 132.473 59.2915H126.06V62.6084H129.156L131.146 60.1761C131.146 60.1761 133.357 61.9451 134.684 63.0507C134.684 63.493 134.241 63.493 133.799 63.493H117.658V64.1563C117.658 64.3775 116.552 65.262 114.562 65.262H113.898V54.6479C113.014 55.3113 112.13 55.9747 111.245 56.638H110.803ZM117.658 51.331V54.6479H122.522V51.5521H117.658V51.331ZM122.301 55.5324H117.436V58.6282H122.301V55.5324ZM122.301 59.7338H117.436V63.0507H122.301V59.7338Z" fill="#1B3154"/>
<path d="M165.862 53.1C165.862 53.1 167.852 54.869 169.178 55.9746C169.178 56.4169 168.736 56.4169 168.294 56.4169H155.027C154.584 57.5225 153.921 58.407 153.037 59.2915L153.258 59.5127H162.545L164.314 57.5225L168.073 60.3972C167.852 60.6183 167.409 61.0606 166.746 61.0606V73.0014C166.746 75.4338 166.304 76.5394 162.545 76.9817C162.545 75.8761 162.545 75.2127 162.103 74.7704C161.881 74.3282 161.439 73.8859 160.334 73.6648V73.2225C160.334 73.2225 161.881 73.2225 162.324 73.2225C162.766 73.2225 162.766 73.0014 162.766 72.5592V69.2423H159.449V74.9915C159.449 75.2127 158.344 76.0972 156.353 76.0972H156.132V69.2423H152.152C151.268 72.338 149.499 74.9916 145.519 76.7606L145.297 76.5394C148.393 73.6648 149.057 69.4634 149.057 65.4831V62.8296C147.951 63.7141 146.624 64.3775 145.297 65.0408L145.076 64.8197V75.4338C145.076 75.6549 143.529 76.5394 141.981 76.5394H141.317V59.5127C140.212 60.8394 139.106 61.9451 137.779 63.0507L137.337 62.8296C139.769 58.6282 142.423 51.9944 143.529 45.5817L149.057 47.3507C148.835 47.793 148.393 48.0141 147.73 48.0141C146.845 50.4465 145.961 52.6577 144.634 54.869L146.182 55.3113C145.961 55.5324 145.74 55.7535 145.076 55.9746V64.5986C147.509 62.3873 149.499 59.2916 150.825 56.4169H146.403L146.182 55.5324H151.268V51.331H147.951L147.73 50.4465H151.268V46.0239L156.132 46.4662C156.132 46.9085 155.69 47.1296 154.806 47.3507V50.2254H158.786V45.8028L163.65 46.2451C163.65 46.6873 163.208 46.9084 162.324 47.1296V50.0042H162.987L164.977 48.0141C164.977 48.0141 166.967 49.7831 168.073 50.8887C168.073 51.331 167.631 51.331 167.188 51.331H162.324V55.5324H164.093L165.862 53.1ZM156.132 68.5789V65.262H152.816C152.816 66.3676 152.594 67.4732 152.373 68.5789H156.132ZM152.816 60.6183V64.1563H156.132V60.6183H152.816ZM155.027 55.5324H159.007V51.331H155.027V55.5324ZM159.891 60.6183V64.1563H163.208V60.6183H159.891ZM163.208 68.5789V65.262H159.891V68.5789H163.208Z" fill="#1B3154"/>
<path d="M177.581 57.3014V75.4338C177.581 75.8761 176.254 76.7606 174.485 76.7606H173.822V46.6873L177.581 48.4563H182.003L183.551 46.6873L187.089 49.3408C186.868 49.562 186.426 49.7831 185.762 50.0042V58.1859C185.762 58.407 183.994 59.2915 182.888 59.2915H182.225V57.7437H177.581V57.3014ZM177.581 49.3408V52.4366H182.446V49.3408H177.581ZM182.446 56.4169V53.3211H177.581V56.4169H182.446ZM192.175 67.4732V74.5493C192.175 74.7704 191.29 75.2127 189.522 75.2127H188.858V67.2521H185.762C185.32 70.1268 183.994 73.4437 179.129 75.4338L178.908 74.9915C181.561 72.7803 182.446 69.9056 182.667 67.2521H178.687L178.466 66.3676H182.667C182.667 66.1465 182.667 65.7042 182.667 65.262V61.5028H179.571L179.35 60.6183H191.29L193.059 58.407C193.059 58.407 195.05 59.9549 196.155 61.0606C196.155 61.2817 195.713 61.5028 195.271 61.5028H191.954V66.3676L193.502 64.1563C193.502 64.1563 195.271 65.7042 196.376 66.8099C196.376 67.2521 195.934 67.2521 195.492 67.2521H192.175V67.4732ZM188.858 66.5887V61.7239H185.984V65.4831C185.984 65.7042 185.984 66.1465 185.984 66.5887H188.858ZM202.789 49.3408C202.568 49.562 202.125 50.0042 201.462 50.0042V72.5591C201.462 75.2127 201.02 76.5394 196.818 76.9817C196.818 75.6549 196.597 74.7704 196.155 74.3282C195.713 73.6648 195.271 73.2225 193.944 73.0014V72.5591C193.944 72.5591 196.376 72.7803 197.04 72.7803C197.482 72.7803 197.703 72.5592 197.703 72.1169V57.5225H192.617V57.7437C192.617 57.9648 191.069 58.8493 189.522 58.8493H189.079V46.9084L192.838 48.4563H197.482L199.251 46.4662L202.789 49.3408ZM192.617 49.3408V52.4366H197.703V49.3408H192.617ZM197.703 56.4169V53.3211H192.617V56.4169H197.703Z" fill="#1B3154"/>
<path d="M220.478 54.4268C220.036 54.6479 219.373 54.869 218.709 55.0901C218.267 59.2915 217.604 63.7141 215.835 67.2521C222.026 71.2324 218.488 74.7704 216.056 73.0014C215.614 72.1169 214.95 71.2324 214.066 70.3479C212.297 73.0014 209.865 75.4338 206.548 77.2028L206.327 76.9817C209.201 74.5493 210.97 71.6747 212.518 68.5789C210.749 67.031 208.98 65.4831 207.211 64.3775C207.653 62.8296 208.096 60.3972 208.759 57.7437L208.096 57.9648C207.875 58.407 207.432 58.6282 207.211 58.6282L206.327 54.6479C207.211 54.6479 208.096 54.6479 209.422 54.6479C210.086 51.1099 210.528 47.793 210.749 45.8028L215.614 46.4662C215.614 46.9085 215.393 47.1296 214.287 47.3507C214.066 49.1197 213.624 51.5521 212.96 54.4268C213.845 54.4268 214.729 54.4268 215.614 54.2056C215.614 53.1 215.614 51.7732 215.614 50.6676L220.699 51.5521C220.478 52.2155 220.257 52.4366 219.373 52.4366C219.373 52.8789 219.373 53.5422 219.373 53.9845L220.921 53.7634V54.4268H220.478ZM213.402 65.7042C214.287 62.6085 214.95 59.2915 215.171 55.9746C214.287 56.1958 213.181 56.4169 212.297 56.8592C211.634 59.5127 210.97 62.3873 210.528 64.5986C211.412 65.0408 212.518 65.262 213.402 65.7042ZM229.986 51.9944C240.821 55.3113 237.726 63.493 233.746 60.3972C233.746 59.5127 233.303 58.6282 233.082 57.7437C230.208 58.6282 226.227 59.7338 221.363 60.6183C221.142 61.0606 220.699 61.2817 220.478 61.2817L218.93 56.8592C218.93 56.8592 219.815 56.638 220.036 56.4169C222.026 54.6479 225.122 48.8986 226.006 45.5817L231.534 47.3507C231.313 47.793 231.092 48.0141 230.208 48.0141C228.218 50.8887 224.901 54.4268 221.805 56.8592C224.458 56.8592 228.439 56.8592 232.64 56.638C231.755 54.869 230.65 53.3211 229.544 51.9944H229.986ZM233.303 61.5028L236.62 64.1563C236.399 64.3775 236.178 64.5986 235.293 64.8197V75.4338C235.293 75.6549 233.967 76.3183 232.198 76.3183H231.534V73.8859H224.237V75.8761C224.237 76.0972 223.132 76.7606 221.142 76.7606H220.478V62.1662L224.458 63.7141H231.313L233.303 61.5028ZM231.755 73.0014V64.5986H224.458V73.0014H231.755Z" fill="#1B3154"/>
<path d="M253.646 50.2254C253.425 50.4465 252.983 50.8887 252.319 50.8887V71.0113C252.319 71.2324 250.55 72.1169 249.445 72.1169H248.781V69.6845H245.465V72.7803C245.465 73.0014 244.359 73.8859 242.59 73.8859H241.927V47.5718L245.907 49.3408H248.56L250.329 47.3507L253.646 50.2254ZM245.465 50.2254V58.8493H248.781V50.2254H245.465ZM248.781 68.5789V59.7338H245.465V68.5789H248.781ZM252.541 51.7732L252.319 50.8887H259.395V46.0239L264.481 46.4662C264.481 46.9085 264.26 47.3507 263.375 47.3507V50.6676H266.25L268.24 48.0141C268.24 48.0141 270.451 49.7831 271.778 51.1099C271.778 51.5521 271.336 51.5521 270.893 51.5521H263.596V56.8592H265.365L267.356 54.2056C267.356 54.2056 269.567 55.9746 271.115 57.3014C271.115 57.7437 270.672 57.7437 270.23 57.7437H254.752L254.531 56.8592H259.837V51.5521H252.541V51.7732ZM269.346 59.7338C269.346 59.7338 271.336 61.5028 272.441 62.6084C272.441 63.0507 271.999 63.0507 271.557 63.0507H267.134V72.1169C267.134 74.7704 266.471 76.3183 262.049 76.7606C262.049 75.6549 261.828 74.7704 261.164 74.1071C260.722 73.4437 259.837 73.0014 258.068 72.7803V72.338C258.068 72.338 261.828 72.5592 262.491 72.5592C262.933 72.5592 263.154 72.338 263.154 71.8958V63.0507H252.541L252.319 62.1662H263.154V58.1859L268.019 58.6282C268.019 59.0704 267.577 59.2915 266.913 59.5127V62.1662H267.356L269.346 59.7338ZM254.752 63.9352C263.818 66.1465 260.28 72.7803 256.742 69.9056C256.521 67.9155 255.415 65.7042 254.531 64.1563L254.752 63.9352Z" fill="#1B3154"/>
<path d="M279.517 65.262C281.728 64.1563 282.613 62.6085 283.055 60.8394C281.286 60.1761 279.738 59.2916 279.738 57.5225C279.738 56.1958 280.844 55.0901 282.392 55.0901C283.939 55.0901 285.266 56.1958 285.266 58.407C285.266 61.2817 283.939 64.5986 280.18 66.3676L279.517 65.262Z" fill="#1B3154"/>
<path d="M302.071 70.569C303.619 70.1268 305.388 69.9056 307.157 69.4634L307.378 69.9056C304.725 71.4535 300.745 73.4437 295.217 75.8761C294.996 76.3183 294.774 76.5394 294.332 76.7606L292.563 72.5592C293.005 72.5592 293.669 72.338 294.553 72.1169V60.1761L298.091 60.3972C298.091 60.6183 297.87 61.0606 297.428 61.0606V71.4535L298.755 71.2324V57.0803H297.649V57.5226C297.649 57.7437 296.543 58.407 294.996 58.407H294.332V46.4662L298.091 48.0141H301.629L303.177 46.2451L306.494 48.8986C306.273 49.1197 305.83 49.3408 305.167 49.562V57.0803C305.167 57.3014 303.398 57.9648 302.293 57.9648H302.071V62.3873H302.514L304.283 59.7338C304.283 59.7338 306.273 61.5028 307.157 62.6085C307.157 63.0507 306.715 63.0507 306.273 63.0507H302.071V70.569ZM297.649 56.1958H301.85V49.1197H297.649V56.1958ZM322.193 51.331C321.972 51.7732 321.53 51.7732 320.867 51.7732C319.761 54.2056 318.434 56.4169 316.665 58.1859C318.876 59.5127 321.53 60.3972 324.626 61.0606V61.2817C323.078 61.9451 322.193 63.0507 321.972 64.8197C321.309 64.5986 320.424 64.1563 319.761 63.9352L321.972 65.4831C321.751 65.7042 321.53 65.9254 320.645 66.1465V75.8761C320.645 76.0972 319.319 76.7606 317.55 76.7606H316.886V74.5493H310.916V76.0972C310.916 76.3183 309.811 76.9817 307.821 76.9817H307.157V64.5986C306.052 65.0409 304.946 65.4831 303.84 65.7042L303.619 65.262C307.378 63.493 310.474 61.0606 312.685 58.1859C311.801 56.8592 311.137 55.5324 310.474 54.2056C308.926 55.9747 307.157 57.3014 305.388 58.407L304.946 58.1859C307.378 55.3113 309.589 50.8887 310.474 45.8028L315.339 47.3507C315.117 47.793 314.675 48.0141 314.012 48.0141C313.791 48.6775 313.348 49.562 312.906 50.2254H316.444L318.434 48.2352L322.193 51.331ZM318.213 63.2718C316.665 62.3873 315.56 61.2817 314.454 60.1761C312.685 61.724 310.695 63.0507 308.263 63.9352L311.137 65.0408H316.444L318.213 63.2718ZM316.665 73.4437V65.9254H310.916V73.4437H316.665ZM312.685 51.1099C312.243 51.9944 311.801 52.6578 311.137 53.3211C311.801 54.4268 312.906 55.5324 314.012 56.4169C315.117 54.6479 316.002 52.8789 316.665 51.1099H312.685Z" fill="#1B3154"/>
<path d="M354.477 49.562C354.477 49.562 357.13 51.5521 358.457 52.8789C358.457 53.3211 358.015 53.3211 357.572 53.3211H327.5L327.279 52.4366H344.969C345.853 50.4465 346.959 47.793 347.401 46.0239L352.929 47.3507C352.708 47.793 352.487 48.0141 351.602 48.0141C350.275 49.3408 348.064 51.1099 346.074 52.4366H352.044L354.477 49.562ZM339.441 54.869L343.2 57.7437C342.979 57.9648 342.536 58.407 341.873 58.407V72.7803C341.873 75.2127 341.431 76.5394 337.672 76.9817C337.672 75.8761 337.451 74.9916 337.229 74.5493C337.008 74.107 336.345 73.6648 335.239 73.4437V73.0014C335.239 73.0014 337.229 73.2225 337.672 73.2225C338.114 73.2225 338.335 73.0014 338.335 72.5592V68.3577H333.692C333.47 71.6746 332.144 74.9916 328.164 77.424L327.942 77.2028C330.154 73.8859 330.154 69.6845 330.154 65.262V55.7535L334.355 57.3014H337.893L339.441 54.869ZM338.114 67.031V62.6084H333.692V64.8197C333.692 65.4831 333.692 66.3676 333.692 67.031H338.114ZM333.692 57.7437V61.7239H338.114V57.7437H333.692ZM334.355 46.0239C343.863 46.9084 340.546 53.9845 337.008 51.5521C336.787 49.562 335.46 47.5718 334.134 46.2451L334.355 46.0239ZM348.285 69.9056C348.285 70.1268 346.738 70.7901 345.411 70.7901H344.748V56.1958L349.612 56.638C349.612 57.0803 349.391 57.5225 348.285 57.5225V69.9056ZM351.381 55.0901L356.246 55.5324C356.246 55.9747 355.803 56.1958 355.14 56.4169V72.5592C355.14 75.2127 354.477 76.5394 350.276 76.9817C350.276 75.8761 350.054 74.9916 349.391 74.3282C348.949 73.8859 348.064 73.4437 346.295 73.0014V72.5592C346.295 72.5592 350.054 72.7803 350.718 72.7803C351.16 72.7803 351.381 72.5592 351.381 72.1169V55.0901Z" fill="#1B3154"/>
<path d="M391.404 63.2718C391.404 63.7141 391.182 63.9352 390.298 64.1563V75.8761C390.298 76.0972 388.529 76.7606 387.202 76.7606H386.539V73.8859H367.965L366.859 75.8761L362.879 73.6648C363.1 73.4437 363.543 73.0014 363.985 72.7803V62.8296L369.071 63.2718C369.071 63.7141 368.628 63.9352 367.744 63.9352V73.0014H375.041V59.7338H369.513L368.407 61.7239L364.648 59.5127C364.869 59.2915 365.311 58.8493 365.754 58.407V49.1197L370.618 49.562C370.618 50.0042 370.176 50.2253 369.292 50.4465V58.8493H375.041V46.0239L380.126 46.4662C380.126 46.9085 379.905 47.3507 379.021 47.3507V58.6282H384.991V48.8986L389.856 49.3408C389.856 49.7831 389.635 50.0042 388.75 50.2254V60.3972C388.75 60.6183 386.981 61.2817 385.654 61.2817H384.991V59.2915H379.021V72.5592H386.539V62.3873L391.404 63.2718Z" fill="#1B3154"/>
<path d="M408.43 65.9253C406.219 67.4732 402.902 69.6845 398.037 72.5591C398.037 73.0014 397.595 73.4437 397.153 73.4437L395.384 69.0211C396.268 68.8 397.816 68.3577 399.806 67.9155V59.2915H396.268L396.047 58.407H399.806V50.0042H396.047L395.826 49.1197H403.123L405.113 46.4662C405.113 46.4662 407.324 48.4563 408.651 49.562C408.651 50.0042 408.209 50.0042 407.766 50.0042H403.786V58.407H404.007L405.555 55.7535C405.555 55.7535 407.324 57.5225 408.43 58.8493C408.43 59.2915 407.988 59.2915 407.545 59.2915H403.786V67.031C405.334 66.5887 406.882 66.1465 408.43 65.7042V65.9253ZM426.341 72.5591C427.225 73.0014 427.446 73.4437 427.446 74.107C427.446 75.6549 426.119 76.3183 422.36 76.3183H420.37C417.496 76.3183 417.054 75.6549 417.054 73.2225V64.8197H415.506C414.842 71.6746 411.083 75.4338 402.017 76.9817L401.796 76.5394C407.988 74.3282 410.42 71.0113 411.083 66.1465C410.42 66.3676 409.757 66.5887 409.093 66.5887H408.43V46.6873L412.41 48.2352H419.928L421.697 46.2451L425.456 49.1197C425.235 49.3408 424.793 49.7831 423.908 49.7831V64.8197C423.908 65.0408 421.918 65.9253 420.591 65.9253H420.149V72.1169C420.149 72.5592 420.149 72.5591 420.813 72.5591H421.918H423.024C423.245 72.5591 423.466 72.5592 423.687 72.1169C423.908 71.6746 424.572 69.9056 425.014 67.9155H425.456L426.341 72.5591ZM412.852 49.1197V53.3211H420.813V49.1197H412.852ZM420.813 58.6282V54.2056H412.852V58.6282H420.813ZM412.852 59.5127V63.9352H420.813V59.5127H412.852Z" fill="#1B3154"/>
<path d="M459.951 50.2253C459.73 50.4465 459.288 50.6676 458.624 50.6676C455.971 52.4366 452.433 54.6479 448.895 56.1958H449.337C449.337 56.638 448.895 56.8591 448.232 57.0803V72.1169C448.232 74.9916 447.568 76.5394 442.261 76.9817C442.04 75.6549 441.819 74.7704 441.156 74.107C440.492 73.4437 439.387 73.0014 437.176 72.5591V72.1169C437.176 72.1169 442.482 72.5591 443.367 72.5591C444.03 72.5591 444.251 72.338 444.251 71.8958V55.7535L447.789 55.9746C450 54.2056 452.433 51.7732 453.981 50.0042H433.638L433.417 49.1197H454.644L457.076 46.9084L459.951 50.2253Z" fill="#1B3154"/>
<path d="M487.148 47.793C486.706 48.2352 485.822 48.4563 484.495 48.4563C486.264 50.8887 490.907 52.8789 495.993 53.5423V53.9845C494.445 54.4268 493.34 55.9747 493.119 57.3014C492.013 56.8592 490.907 56.1958 490.023 55.5324C489.802 55.7535 489.581 55.7535 489.139 55.7535C488.696 60.3972 488.254 62.6085 486.706 63.7141C485.822 64.3775 484.495 64.5986 482.726 64.5986C482.726 63.493 482.505 62.8296 482.063 62.3873C481.62 61.9451 480.515 61.5028 479.409 61.2817V60.8395C480.515 60.8395 482.505 61.0606 483.168 61.0606C483.611 61.0606 483.832 61.0606 484.274 60.8395C484.716 60.3972 485.158 58.6282 485.379 55.3113H479.851C478.304 60.8395 474.102 64.1563 466.805 65.7042L466.584 65.262C472.112 63.0507 474.766 59.7338 475.65 55.3113H471.891L471.67 54.6479C469.68 55.9747 467.469 57.0803 464.815 57.9648L464.594 57.5226C468.796 54.869 472.333 50.4465 473.881 46.9085L478.525 49.1197C478.304 49.3409 478.083 49.562 477.198 49.562C475.871 51.331 474.323 52.8789 472.112 54.4268H485.158L486.927 52.8789C485.601 51.5521 484.716 50.0042 484.053 48.4563H480.294L480.073 47.5718H483.168L484.274 45.8028L487.148 47.793ZM487.37 65.9254L492.455 66.3676C492.455 66.8099 492.234 67.031 491.35 67.2521V75.6549C491.35 75.8761 489.581 76.5394 488.033 76.5394H487.37V74.5493H472.776L471.67 75.8761L467.69 74.1071C467.911 73.6648 468.353 73.4437 468.795 73.0014V65.9254L473.881 66.3676C473.881 66.8099 473.439 67.2521 472.555 67.2521V73.2225H478.083V64.3775L483.168 64.8197C483.168 65.262 482.947 65.7042 482.063 65.7042V73.2225H487.37V65.9254Z" fill="#1B3154"/>
<path d="M507.934 70.569C509.482 70.1268 511.25 69.9056 513.019 69.4634L513.241 69.9056C510.587 71.4535 506.607 73.4437 501.079 75.8761C500.858 76.3183 500.637 76.5394 500.195 76.7606L498.426 72.5592C498.868 72.5592 499.531 72.338 500.416 72.1169V60.1761L503.954 60.3972C503.954 60.6183 503.732 61.0606 503.29 61.0606V71.4535L504.617 71.2324V57.0803H503.732V57.5226C503.732 57.7437 502.627 58.407 501.079 58.407H500.416V46.4662L504.175 48.0141H507.713L509.26 46.2451L512.577 48.8986C512.356 49.1197 511.914 49.3408 511.251 49.562V57.0803C511.251 57.3014 509.482 57.9648 508.376 57.9648H507.713V62.3873H508.155L509.924 59.7338C509.924 59.7338 511.914 61.5028 512.798 62.6085C512.798 63.0507 512.356 63.0507 511.914 63.0507H507.713V70.569H507.934ZM503.732 56.1958H507.934V49.1197H503.732V56.1958ZM528.056 51.331C527.834 51.7732 527.392 51.7732 526.729 51.7732C525.623 54.2056 524.297 56.4169 522.306 58.1859C524.518 59.5127 527.171 60.3972 530.267 61.0606V61.2817C528.719 61.9451 527.834 63.0507 527.613 64.8197C526.95 64.5986 526.066 64.1563 525.402 63.9352L527.613 65.4831C527.392 65.7042 527.171 65.9254 526.287 66.1465V75.8761C526.287 76.0972 524.96 76.7606 523.191 76.7606H522.528V74.5493H516.557V76.0972C516.557 76.3183 515.452 76.9817 513.462 76.9817H512.798V64.5986C511.693 65.0409 510.587 65.4831 509.482 65.7042L509.26 65.262C513.019 63.493 516.115 61.0606 518.326 58.1859C517.442 56.8592 516.778 55.5324 516.115 54.2056C514.567 55.9747 512.798 57.3014 511.029 58.407L510.587 58.1859C513.019 55.3113 515.231 50.8887 516.115 45.8028L520.98 47.3507C520.759 47.793 520.316 48.0141 519.653 48.0141C519.211 48.6775 518.99 49.562 518.547 50.2254H522.085L524.075 48.2352L528.056 51.331ZM524.075 63.2718C522.528 62.3873 521.422 61.2817 520.316 60.1761C518.547 61.724 516.557 63.0507 514.125 63.9352L517 65.0408H522.306L524.075 63.2718ZM522.749 73.4437V65.9254H516.779V73.4437H522.749ZM518.769 51.1099C518.326 51.9944 517.884 52.6578 517.221 53.3211C517.884 54.4268 518.99 55.5324 520.095 56.4169C521.201 54.6479 522.085 52.8789 522.749 51.1099H518.769Z" fill="#1B3154"/>
<path d="M535.795 61.5028C535.795 58.8493 538.006 56.8592 540.438 56.8592C542.871 56.8592 545.082 58.8493 545.082 61.5028C545.082 64.1563 543.092 66.1465 540.438 66.1465C537.785 66.1465 535.795 63.9352 535.795 61.5028ZM536.901 61.5028C536.901 63.493 538.448 65.0408 540.438 65.0408C542.428 65.0408 543.976 63.493 543.976 61.5028C543.976 59.5127 542.428 57.9648 540.438 57.9648C538.448 57.9648 536.901 59.5127 536.901 61.5028Z" fill="#1B3154"/>
<path d="M108.813 138.234C108.592 138.676 108.371 139.118 107.265 139.118V167.201C107.265 167.644 104.39 169.192 101.516 169.192H100.189V143.983C98.4202 145.752 96.4301 147.521 94.44 148.848L93.9978 148.406C97.7568 142.214 101.737 132.485 103.285 122.976L112.572 125.851C112.351 126.514 111.687 126.956 110.582 126.956C109.034 130.716 107.486 134.254 105.496 137.128L108.813 138.234ZM130.261 135.58C130.261 136.244 129.598 136.686 128.492 136.907V161.452C128.492 166.096 127.387 168.749 119.869 169.413C119.648 167.201 119.427 165.432 118.542 164.327C117.658 163.221 116.773 162.558 114.12 161.894V161.231C114.12 161.231 119.427 161.452 120.532 161.452C121.196 161.452 121.417 161.231 121.417 160.568V145.089C120.974 145.31 120.753 145.31 120.09 145.31C117.215 151.944 113.014 157.03 108.371 160.347L107.707 159.904C110.14 155.482 112.351 148.185 113.456 141.551L121.196 143.983V134.475L130.261 135.58ZM141.76 135.138C141.317 135.58 140.875 135.801 139.77 135.801C138.001 137.792 134.684 140.445 132.251 141.993L131.809 141.772C132.251 139.782 132.473 136.686 132.694 134.475H118.984C116.11 138.455 112.793 141.772 109.034 144.204L108.592 143.762C111.687 138.897 114.783 130.937 116.11 123.418L124.955 126.735C124.733 127.399 124.07 127.841 122.964 127.62C122.08 129.61 120.974 131.379 119.869 133.148H132.03L135.568 129.61L141.76 135.138ZM130.261 142.435C146.845 150.396 140.875 164.327 134.242 158.356C133.799 153.049 131.809 147.521 129.598 142.877L130.261 142.435Z" fill="#1B3154"/>
<path d="M145.298 134.917C159.67 135.359 154.585 146.416 148.835 142.656C148.393 140.003 146.624 137.128 145.076 135.138L145.298 134.917ZM186.647 142.877C186.647 142.877 189.964 146.194 191.954 148.406C191.954 148.848 191.29 149.29 190.627 149.29H174.264C172.937 158.356 168.073 165.875 155.911 169.634L155.69 169.192C163.429 164.106 166.525 157.251 167.409 149.29H157.901L157.459 147.963H167.409C167.631 146.416 167.631 145.089 167.631 143.541V134.032H161.882L161.439 132.927C159.228 139.561 156.354 148.848 155.69 151.28C155.248 153.049 154.806 155.039 154.806 156.366C154.806 159.241 157.238 160.789 157.017 165.211C157.017 167.865 155.027 169.634 152.152 169.634C150.826 169.634 149.499 168.97 148.835 166.98C149.941 161.673 149.72 156.808 148.393 155.924C147.73 155.482 146.845 155.261 145.74 155.039V154.155H148.172C149.057 154.155 149.278 154.155 149.72 153.049C151.047 151.059 151.047 151.059 161.439 129.61L162.103 129.831L161.218 132.485H167.188V123.418L176.033 124.303C176.033 124.966 175.591 125.63 174.264 125.63V132.485H177.139L180.234 129.168L186.205 133.811C185.984 134.254 185.32 134.696 184.215 134.696V145.973L186.647 142.877ZM149.499 123.861C164.535 124.745 159.007 136.244 152.816 132.042C152.152 129.168 150.604 126.072 149.057 124.082L149.499 123.861ZM174.485 153.713C194.828 158.135 190.406 172.73 183.33 168.086C181.782 163.221 177.802 157.693 174.043 154.155L174.485 153.713ZM174.706 143.32C174.706 144.868 174.706 146.416 174.485 147.742H178.023V133.811H174.706V143.32Z" fill="#1B3154"/>
<path d="M222.026 161.231C224.016 161.452 226.448 161.452 229.102 161.452C231.976 161.452 238.61 161.452 241.706 161.452V161.894C239.273 162.558 238.168 165.211 238.168 168.086H228.881C217.604 168.086 211.412 166.096 207.874 157.472C205.442 162.116 201.683 166.317 195.713 169.192L195.271 168.749C201.683 162.337 203.452 153.049 203.673 145.752L212.518 147.3C212.297 147.963 211.855 148.406 210.528 148.406C210.086 150.838 209.422 153.049 208.317 155.482C209.864 157.472 212.076 159.02 214.729 159.904V141.108H202.568L202.125 139.782C201.904 140.224 201.462 140.445 201.02 140.666C199.03 141.772 195.934 140.887 195.271 138.234C194.607 135.801 196.155 134.032 198.145 133.148C199.693 132.485 201.904 130.716 201.904 128.725H202.346C202.789 129.831 203.231 130.716 203.452 131.821H218.046C217.383 131.6 216.719 131.379 216.056 130.937C216.056 128.283 214.95 125.408 212.96 123.861L213.181 123.639C226.006 122.976 224.901 130.716 220.478 132.042H231.755L235.293 128.504L241.485 134.254C241.042 134.696 240.6 134.696 239.495 134.917C237.947 136.244 235.735 137.57 233.524 138.676C234.409 139.339 235.514 140.224 236.178 140.666C235.957 141.108 235.514 141.551 234.851 141.551H221.805V150.838H226.891L230.207 146.416C230.207 146.416 233.967 149.29 236.178 151.28C236.178 151.723 235.514 152.165 234.851 152.165H221.805V161.231H222.026ZM226.891 139.782L230.207 135.58C230.207 135.58 231.092 136.244 232.198 136.907C232.419 135.58 232.419 134.032 232.64 132.927H203.894C204.337 136.023 203.673 138.234 202.346 139.782H226.891Z" fill="#1B3154"/>
<path d="M248.339 161.231C248.339 158.799 250.329 156.808 252.762 156.808C255.194 156.808 257.184 158.799 257.184 161.231C257.184 163.663 255.194 165.654 252.762 165.654C250.329 165.654 248.339 163.663 248.339 161.231Z" fill="#1B3154"/>
<path d="M266.471 161.231C266.471 158.799 268.461 156.808 270.894 156.808C273.326 156.808 275.316 158.799 275.316 161.231C275.316 163.663 273.326 165.654 270.894 165.654C268.461 165.654 266.471 163.663 266.471 161.231Z" fill="#1B3154"/>
<path d="M284.824 161.231C284.824 158.799 286.814 156.808 289.246 156.808C291.679 156.808 293.669 158.799 293.669 161.231C293.669 163.663 291.679 165.654 289.246 165.654C286.814 165.654 284.824 163.663 284.824 161.231Z" fill="#1B3154"/>
<path d="M302.956 161.231C302.956 158.799 304.946 156.808 307.378 156.808C309.811 156.808 311.801 158.799 311.801 161.231C311.801 163.663 309.811 165.654 307.378 165.654C304.946 165.654 302.956 163.663 302.956 161.231Z" fill="#1B3154"/>
<path d="M321.309 161.231C321.309 158.799 323.299 156.808 325.731 156.808C328.164 156.808 330.154 158.799 330.154 161.231C330.154 163.663 328.164 165.654 325.731 165.654C323.299 165.654 321.309 163.663 321.309 161.231Z" fill="#1B3154"/>
<path d="M339.44 161.231C339.44 158.799 341.431 156.808 343.863 156.808C346.295 156.808 348.285 158.799 348.285 161.231C348.285 163.663 346.295 165.654 343.863 165.654C341.431 165.654 339.44 163.663 339.44 161.231Z" fill="#1B3154"/>
</svg>
