<svg width="431" height="272" viewBox="0 0 431 272" fill="none" xmlns="http://www.w3.org/2000/svg">
<path d="M18.4845 27.3634C20.0323 27.5845 21.5802 27.5845 23.3491 27.5845C25.3392 27.5845 29.9827 27.5845 32.1939 27.5845V28.0268C30.8672 28.2479 30.4249 29.7958 30.2038 31.3437H23.128C15.6099 31.3437 11.6298 29.7958 9.19744 23.3831C7.6496 26.7 5.21729 30.0169 1.01602 32.2282L0.794922 32.007C4.99619 27.8056 6.544 21.393 6.98624 16.5282L12.2931 17.4127C12.2931 17.8549 11.8509 18.0761 10.9664 18.2972C10.7453 19.624 10.3031 21.1718 9.63971 22.4986C10.7453 24.7099 12.2931 26.0366 14.2832 26.9211V14.3169L19.369 14.7592C19.369 15.2014 19.1478 15.4225 18.2634 15.6437V19.8451H22.9069L25.1181 16.9704C25.1181 16.9704 27.7715 18.7394 29.3193 20.0662C29.3193 20.5085 28.8771 20.5085 28.4349 20.5085H18.4845V27.3634ZM14.5043 12.5479V7.24086H4.99618L4.77505 6.35635H14.7254V1.0493L19.8112 1.49155C19.8112 1.9338 19.5901 2.37606 18.7056 2.37606V6.35635H23.128L25.3392 3.70282C25.3392 3.70282 27.7715 5.47183 29.3193 6.79859C29.3193 7.24085 28.8771 7.24086 28.4349 7.24086H18.7056V12.5479H25.7814L27.9926 9.67325C27.9926 9.67325 30.6461 11.4423 32.1939 12.769C32.1939 13.2113 31.7516 13.2113 31.3094 13.2113H1.67939L1.45825 12.3268H14.5043V12.5479Z" fill="#254F4D"/>
<path d="M65.1407 5.25071C64.9196 5.47184 64.4774 5.69296 63.814 5.69296C61.1606 7.46197 57.4015 9.67324 54.0847 11.2211H54.3059C54.3059 11.6634 53.8636 11.8845 53.2003 12.1056V27.1423C53.2003 30.0169 52.5369 31.5648 47.23 32.007C47.0089 30.6803 46.7878 29.7958 46.1244 29.1324C45.4611 28.469 44.3555 28.0268 42.1443 27.5845V27.1423C42.1443 27.1423 47.4512 27.5845 48.3356 27.5845C48.999 27.5845 49.2201 27.3634 49.2201 26.9211V10.7789L52.758 11C54.9692 9.23099 57.4015 6.7986 58.9493 5.02959H38.6064L38.3853 4.14508H59.6127L62.045 1.93381L65.1407 5.25071Z" fill="#254F4D"/>
<path d="M93.2229 15.2014L95.8764 11.4422C95.8764 11.4422 98.9721 14.0958 100.741 15.8648C100.741 16.307 100.299 16.307 99.6354 16.307H70.2265L70.0054 15.2014H93.2229Z" fill="#254F4D"/>
<path d="M118.652 20.7296C116.883 21.8352 114.229 23.162 110.912 24.7099V30.9014C110.912 31.1225 109.807 32.007 107.817 32.007H107.375V26.4789L106.711 26.7C106.49 27.1423 106.269 27.3634 105.827 27.5845L103.615 23.3831C104.5 23.162 105.827 22.9409 107.375 22.7197V3.26057L110.912 4.80845C112.239 3.70282 113.566 2.37606 114.893 1.0493L118.873 4.3662C118.652 4.58733 118.209 4.80845 117.546 4.58733C115.556 5.25071 112.902 5.91409 110.912 6.35635V11H112.681L114.45 8.56761C114.45 8.56761 116.44 10.3366 117.767 11.4423C117.767 11.8845 117.325 11.8845 116.883 11.8845H110.912V16.7493H112.902L114.893 14.3169C114.893 14.3169 116.883 16.0859 118.209 17.1916C118.209 17.6338 117.767 17.6338 117.325 17.6338H111.134V22.0563C113.566 21.6141 116.219 20.9507 118.873 20.2873L118.652 20.7296ZM133.467 17.1916C133.246 17.6338 132.803 17.6338 132.14 17.6338C131.034 20.5085 129.486 22.9409 127.496 24.931C129.929 26.4789 132.803 27.5845 135.678 28.2479V28.6901C134.13 28.9113 133.024 30.238 132.361 32.007C129.486 30.6803 127.054 29.3535 125.064 27.1423C121.968 29.3535 118.209 31.1225 113.345 32.007L113.124 31.5648C117.325 30.0169 120.863 27.8056 123.295 24.931C121.968 22.7197 120.863 20.2873 120.199 16.9704H118.209L117.988 16.0859H127.718L129.929 14.0958L133.467 17.1916ZM116.883 15.2014C119.536 12.5479 119.757 9.231 119.757 6.35635V1.93381L123.958 3.48169H126.612L128.381 1.49155L131.698 4.14508C131.477 4.36621 131.034 4.58733 130.592 4.58733V9.67325C130.592 9.89438 130.592 10.1155 131.034 10.1155H131.477H132.14C132.361 10.1155 132.582 10.1155 132.803 10.1155C133.024 10.1155 133.246 10.1155 133.467 9.89437H133.688H133.909C134.793 10.3366 135.014 10.5577 135.014 11.2211C135.014 12.5479 133.909 13.2113 131.034 13.2113H129.708C127.275 13.2113 127.054 12.5479 127.054 10.3366V3.92396H123.295V5.91408C123.295 8.5676 122.632 12.769 117.104 14.9803L116.883 15.2014ZM120.863 17.1916C121.747 19.8451 123.074 21.6141 124.843 23.3831C126.17 21.393 127.054 19.4028 127.939 17.1916H120.863Z" fill="#254F4D"/>
<path d="M147.397 25.5944C148.945 25.1521 150.714 24.931 152.483 24.4887L152.704 24.931C150.05 26.4789 146.07 28.469 140.542 30.9014C140.321 31.3437 140.1 31.5648 139.658 31.7859L137.889 27.5845C138.331 27.5845 138.995 27.3634 139.879 27.1423V15.4225L143.638 15.6437C143.638 15.8648 143.417 16.3071 142.975 16.3071V26.7L144.301 26.4789V12.3268H143.196V12.769C143.196 12.9902 142.09 13.6535 140.542 13.6535H139.879V1.71269L143.638 3.26057H147.176L148.724 1.49155L152.041 4.14508C151.819 4.36621 151.377 4.58732 150.714 4.80845V12.3268C150.714 12.5479 148.945 13.2113 147.839 13.2113H147.176V17.6338H147.618L149.387 14.9803C149.387 14.9803 151.377 16.7493 152.262 17.8549C152.262 18.2972 151.819 18.2972 151.377 18.2972H147.176V25.5944H147.397ZM143.196 11.4423H147.397V4.3662H143.196V11.4423ZM167.519 6.35635C167.298 6.7986 166.856 6.79859 166.192 6.79859C165.087 9.23099 163.76 11.4423 161.77 13.2113C163.981 14.538 166.634 15.4225 169.73 16.0859V16.3071C168.182 16.9704 167.298 18.0761 167.077 19.8451C166.413 19.6239 165.529 19.1817 164.865 18.9606L167.077 20.5085C166.856 20.7296 166.634 20.9507 165.75 21.1718V30.9014C165.75 31.1225 164.423 31.7859 162.654 31.7859H161.991V29.3535H156.021V30.9014C156.021 31.1225 154.915 31.7859 152.925 31.7859H152.262V19.4028C151.156 19.8451 150.05 20.2873 148.945 20.5085L148.724 20.0662C152.483 18.2972 155.578 15.8648 157.79 12.9902C156.905 11.6634 156.242 10.3366 155.578 9.00986C154.031 10.7789 152.262 12.1056 150.493 13.2113L150.05 12.9902C152.483 10.1155 154.694 5.69297 155.578 0.607056L160.443 2.15494C160.222 2.59719 159.78 2.81832 159.116 2.81832C158.895 3.4817 158.453 4.36621 158.011 5.02959H161.549L163.539 3.03945L167.519 6.35635ZM163.539 18.5183C161.991 17.6338 160.885 16.5282 159.78 15.4225C158.011 16.9704 156.021 18.2972 153.588 19.1817L156.463 20.2873H161.77L163.539 18.5183ZM162.212 28.6901V21.1718H156.242V28.6901H162.212ZM158.232 6.35635C157.79 7.24085 157.347 7.90423 156.684 8.56762C157.347 9.67325 158.453 10.7789 159.559 11.6634C160.664 9.89438 161.549 8.12536 162.212 6.35635H158.232Z" fill="#254F4D"/>
<path d="M177.027 20.2873C179.238 19.1817 180.123 17.6338 180.565 15.8648C178.796 15.2014 177.248 14.3169 177.248 12.5479C177.248 11.2211 178.354 10.1155 179.902 10.1155C181.449 10.1155 182.776 11.2211 182.776 13.4324C182.776 16.307 181.449 19.6239 177.69 21.393L177.027 20.2873Z" fill="#254F4D"/>
<path d="M199.36 25.5944C200.908 25.1521 202.677 24.931 204.446 24.4887L204.667 24.931C202.014 26.4789 198.033 28.469 192.505 30.9014C192.284 31.3437 192.063 31.5648 191.621 31.7859L189.852 27.5845C190.294 27.5845 190.958 27.3634 191.842 27.1423V15.4225L195.601 15.6437C195.601 15.8648 195.38 16.3071 194.938 16.3071V26.7L196.265 26.4789V12.3268H195.38V12.769C195.38 12.9902 194.274 13.6535 192.727 13.6535H191.842V1.71269L195.601 3.26057H199.139L200.687 1.49155L204.004 4.14508C203.783 4.36621 203.34 4.58732 202.677 4.80845V12.3268C202.677 12.5479 200.908 13.2113 199.802 13.2113H199.139V17.6338H199.581L201.35 14.9803C201.35 14.9803 203.34 16.7493 204.225 17.8549C204.225 18.2972 203.783 18.2972 203.34 18.2972H199.139V25.5944H199.36ZM195.159 11.4423H199.36V4.3662H195.159V11.4423ZM219.703 6.35635C219.482 6.7986 219.04 6.79859 218.376 6.79859C217.271 9.23099 215.944 11.4423 213.954 13.2113C216.165 14.538 218.819 15.4225 221.914 16.0859V16.3071C220.367 16.9704 219.482 18.0761 219.261 19.8451C218.598 19.6239 217.713 19.1817 217.05 18.9606L219.261 20.5085C219.04 20.7296 218.819 20.9507 217.934 21.1718V30.9014C217.934 31.1225 216.607 31.7859 214.839 31.7859H214.175V29.3535H208.205V30.9014C208.205 31.1225 207.099 31.7859 205.109 31.7859H204.446V19.4028C203.34 19.8451 202.235 20.2873 201.129 20.5085L200.908 20.0662C204.667 18.2972 207.763 15.8648 209.974 12.9902C209.089 11.6634 208.426 10.3366 207.763 9.00986C206.215 10.7789 204.446 12.1056 202.677 13.2113L202.235 12.9902C204.667 10.1155 206.878 5.69297 207.763 0.607056L212.627 2.15494C212.406 2.59719 211.964 2.81832 211.301 2.81832C211.08 3.4817 210.637 4.36621 210.195 5.02959H213.733L215.723 3.03945L219.703 6.35635ZM215.723 18.5183C214.175 17.6338 213.07 16.5282 211.964 15.4225C210.195 16.9704 208.205 18.2972 205.773 19.1817L208.647 20.2873H213.954L215.723 18.5183ZM214.175 28.6901V21.1718H208.205V28.6901H214.175ZM210.195 6.35635C209.753 7.24085 209.311 7.90423 208.647 8.56762C209.311 9.67325 210.416 10.7789 211.522 11.6634C212.627 9.89438 213.512 8.12536 214.175 6.35635H210.195Z" fill="#254F4D"/>
<path d="M235.403 17.8549C235.182 18.0761 234.96 18.0761 234.297 18.0761C233.634 20.2873 232.086 22.9408 230.096 24.7099C230.317 24.7099 230.538 24.931 230.759 24.931C233.191 26.9211 237.393 27.3634 244.911 27.3634C248.891 27.3634 251.987 27.3634 255.967 27.1423V27.5845C254.419 27.8056 253.534 29.3535 253.313 30.9014H243.363C235.845 30.9014 232.97 29.7958 230.096 26.2578C229.654 25.5944 229.211 25.8155 228.99 26.2578C228.548 27.3634 227.885 28.9113 227.221 30.4592C227.221 30.6803 227.221 30.9014 227 31.1225L224.347 27.3634C225.673 26.7 227.221 25.3733 228.327 24.931C229.432 22.9409 230.096 20.0662 230.317 17.6338H229.432L228.327 18.7394L225.452 16.7493C225.673 16.5282 226.116 16.3071 226.779 16.0859C227.663 14.538 228.769 12.1056 229.432 10.5578H225.673L225.452 9.67325H229.432L230.98 8.12535L234.076 10.7789C233.855 11 233.413 11.2211 232.749 11.2211C232.086 12.769 230.98 14.9803 230.096 16.7493H230.759L232.528 14.9803L235.624 17.4127V11L238.277 12.1056V1.71269L241.815 3.03945H248.006L249.554 1.0493L253.313 3.70282C253.092 4.14507 252.65 4.14508 251.766 4.3662V12.5479L252.871 11L255.082 14.0958C254.861 14.3169 254.419 14.538 253.756 14.7592V23.6042C253.756 25.8155 253.092 26.9211 249.554 27.1423C249.554 26.0366 249.554 25.5944 249.112 25.1521C248.891 24.7099 248.228 24.2676 247.122 24.0465V23.6042C247.122 23.6042 248.67 23.6042 249.554 23.6042C249.997 23.6042 249.997 23.6042 249.997 23.162V13.6535H238.719V25.3732C238.719 25.8155 237.172 26.4789 235.845 26.4789H235.403V17.8549ZM226.779 1.71269C235.403 3.26058 232.086 9.67324 228.769 7.01972C228.548 5.2507 227.442 3.03945 226.337 1.93381L226.779 1.71269ZM245.574 23.3831V22.0563H243.142V23.162C243.142 23.3831 241.815 24.0465 240.71 24.0465H240.267V14.7592L243.363 16.0859H245.353L246.68 14.7592L249.554 16.7493C249.333 16.9704 249.112 17.1916 248.449 17.1916V22.2775C248.449 22.4986 247.122 23.162 246.016 23.162H245.574V23.3831ZM241.152 4.14508V12.769H242.921V6.13522L246.016 7.46198H247.785V4.3662H241.152V4.14508ZM245.574 21.1718V16.9704H243.142V21.1718H245.574ZM245.795 12.769H248.006V8.34649H245.795V12.769Z" fill="#254F4D"/>
<path d="M282.722 15.2014L285.376 11.4422C285.376 11.4422 288.471 14.0958 290.24 15.8648C290.24 16.307 289.798 16.307 289.135 16.307H259.505L259.284 15.2014H282.722Z" fill="#254F4D"/>
<path d="M320.755 18.5183C320.534 18.7394 320.092 19.1817 319.428 19.1817V30.9014C319.428 31.1225 317.438 31.7859 316.111 31.7859H315.448V18.2972H303.065C302.402 23.8254 300.191 28.9113 294.221 31.7859L294 31.5648C298.422 26.9211 299.306 20.7296 299.306 14.0958V1.49155L304.392 1.93381C304.392 2.37607 304.171 2.81832 303.065 2.81832V10.1155H313.9V0.607056L319.207 1.0493C319.207 1.49156 318.986 1.93381 317.88 1.93381V9.45213C318.323 9.67325 318.544 10.1155 318.986 10.5578C318.986 11 318.544 11 318.102 11H303.065V13.8747C303.065 14.9803 303.065 16.0859 302.844 17.1916H314.785L316.554 15.2014L320.755 18.5183Z" fill="#254F4D"/>
<path d="M355.028 12.3268C355.028 12.3268 357.461 14.0958 358.787 15.4225C358.787 15.8648 358.345 15.8648 357.903 15.8648H342.203C341.319 17.4127 339.992 18.9606 338.666 20.2873L338.887 20.5085H350.606L352.375 18.5183L356.355 21.3929C356.134 21.6141 355.692 21.8352 355.028 22.0563V30.9014C355.028 31.1225 353.038 31.7859 351.712 31.7859H351.048V29.1324H338.444V30.9014C338.444 31.1225 337.339 32.007 335.128 32.007H334.464V23.3831C332.253 24.7099 330.042 26.0366 327.61 26.9211L327.388 26.4789C331.369 23.8253 335.128 19.4028 336.897 15.6437H328.052L327.831 14.7591H353.038L355.028 12.3268ZM334.464 12.5479L330.484 10.5578C330.705 10.3366 331.147 9.89437 331.811 9.45212V2.59717L336.897 3.03944C336.897 3.48169 336.675 3.92395 335.57 3.92395V9.67324H341.54V0.828171L346.626 1.27042C346.626 1.71267 346.405 2.15493 345.52 2.15493V9.67324H351.491V2.15493L356.576 2.59717C356.576 3.03943 356.134 3.48168 355.25 3.48168V11.4422C355.25 11.6634 353.481 12.3268 351.933 12.3268H351.269V11H335.791L334.464 12.5479ZM338.444 21.3929V28.2479H351.048V21.3929H338.444Z" fill="#254F4D"/>
<path d="M388.86 1.49155C388.86 1.49155 391.513 3.4817 393.282 5.02959C393.282 5.47184 392.84 5.47184 392.398 5.47184H377.583C376.477 8.78874 374.708 12.1056 372.497 14.9803L374.045 15.6437H385.985L387.975 13.4324L391.955 16.5282C391.734 16.7493 391.071 17.1916 390.407 17.1916V30.9014C390.407 31.1225 388.417 32.007 387.091 32.007H386.427V28.9113H373.16V31.1225C373.16 31.3437 372.055 32.2282 370.065 32.2282H369.401V18.5183C367.19 20.7296 364.758 22.7197 362.104 24.2676L361.883 24.0465C367.19 19.1817 371.17 12.1056 372.497 5.69296H362.768L362.546 4.80845H386.427L388.86 1.49155ZM373.16 16.5282V27.8056H385.985V16.5282H373.16Z" fill="#254F4D"/>
<path d="M411.414 8.12534C411.193 8.34647 410.751 8.78873 410.087 8.78873V28.6901C410.087 28.9113 408.318 29.7958 406.992 29.7958H406.328V27.1423H401.243V29.5746C401.243 30.0169 399.916 30.9014 398.368 30.9014H397.705V5.69295L401.464 7.24085H401.685C401.906 5.47184 402.127 2.81831 402.348 1.04929L407.655 2.37605C407.434 3.03943 406.992 3.26056 406.328 3.26056C405.444 4.3662 404.117 6.13521 403.011 7.46197H405.886L407.655 5.47183L411.414 8.12534ZM401.464 8.34648V16.5282H406.549V8.34648H401.464ZM406.328 26.2577V17.6338H401.243V26.2577H406.328ZM427.556 8.12534C427.335 8.34647 426.892 8.5676 426.008 8.78873C425.787 22.0563 425.344 28.2479 423.576 30.238C422.47 31.5648 420.922 32.007 418.711 32.007C418.711 30.6803 418.49 29.7958 418.048 29.3535C417.384 28.6901 416.058 28.2479 414.51 27.8056V27.3634C416.058 27.5845 418.49 27.5845 419.153 27.5845C419.817 27.5845 420.038 27.3634 420.48 27.1423C421.807 26.0366 422.028 19.4028 422.249 8.12534H416.057C414.51 11 412.52 13.2113 410.529 14.9803L410.087 14.7591C411.856 11.4422 413.625 5.91409 414.51 0.828171L419.817 2.37605C419.595 2.8183 419.374 3.03944 418.49 3.03944C417.826 4.3662 417.384 5.69295 416.721 7.01971H422.028L424.018 4.80844L427.556 8.12534ZM412.962 14.0958C422.691 16.9704 418.932 24.0465 415.615 21.1718C415.394 18.7394 414.067 16.0859 412.741 14.3169L412.962 14.0958Z" fill="#254F4D"/>
<path d="M13.8409 47.2648C13.6198 47.4859 13.1776 47.9282 12.5142 47.9282V68.0507C12.5142 68.2718 10.7453 69.1563 9.63967 69.1563H8.9763V66.7239H5.65951V69.8197C5.65951 70.0408 4.5539 70.9253 2.78495 70.9253H2.12158V44.8324L6.10174 46.6014H8.75517L10.5241 44.6113L13.8409 47.2648ZM5.65951 47.4859V56.1099H8.9763V47.4859H5.65951ZM8.9763 65.8394V56.9944H5.65951V65.8394H8.9763ZM12.7353 49.0338L12.5142 48.1493H19.59V43.2845L24.6758 43.7268C24.6758 44.169 24.4547 44.6113 23.5702 44.6113V47.9282H26.4447L28.4348 45.2746C28.4348 45.2746 30.646 47.0437 31.9727 48.3704C31.9727 48.8127 31.5305 48.8127 31.0883 48.8127H23.7913V54.1197H25.5603L27.5503 51.4662C27.5503 51.4662 29.7615 53.2352 31.3094 54.562C31.3094 55.0042 30.8671 55.0042 30.4249 55.0042H14.9465L14.7254 54.1197H20.0323V48.8127H12.7353V49.0338ZM29.5404 56.7732C29.5404 56.7732 31.5305 58.5422 32.6361 59.6479C32.6361 60.0901 32.1939 60.0901 31.7516 60.0901H27.3292V69.1563C27.3292 71.8099 26.6659 73.3577 22.2435 73.8C22.2435 72.6944 22.0223 71.8098 21.359 71.1465C20.9167 70.4831 20.0323 70.0408 18.2633 69.8197V69.3775C18.2633 69.3775 22.0224 69.5986 22.6857 69.5986C23.128 69.5986 23.3491 69.3775 23.3491 68.9352V60.0901H12.7353L12.5142 59.2056H23.3491V55.2253L28.2137 55.6676C28.2137 56.1098 27.7715 56.331 27.1081 56.5521V59.2056H27.5503L29.5404 56.7732ZM14.9465 61.1958C24.0124 63.407 20.4745 70.0408 16.9366 67.1662C16.7155 65.1761 15.6099 62.9648 14.7254 61.4169L14.9465 61.1958Z" fill="#254F4D"/>
<path d="M45.0187 44.6113C44.7976 45.0535 44.3553 45.2747 43.692 45.2747C43.0286 47.9282 41.923 50.1394 41.0385 52.3507L42.8075 53.0141C42.5864 53.2352 42.3652 53.4563 41.7019 53.6775V73.1366C41.7019 73.3577 40.154 74.2423 38.8273 74.2423H38.164V57.2155C37.2795 58.5423 36.395 59.6479 35.2894 60.5324L34.8472 60.3113C37.0584 55.8887 39.0484 49.2549 39.9329 43.0634L45.0187 44.6113ZM47.0087 67.8296C47.0087 68.0507 45.4609 68.9352 44.1342 68.9352H43.692V48.5916L48.1143 49.0338C48.1143 49.4761 47.8932 49.6972 47.0087 49.9183V67.8296ZM63.5927 48.8127C63.5927 48.8127 65.5828 50.8028 66.6884 51.9085C66.6884 52.3507 66.2462 52.3507 65.8039 52.3507H50.7678L55.4113 53.6775C55.1902 54.1197 54.7479 54.3408 54.0846 54.3408C53.6423 55.2254 53.2001 55.8887 52.7579 56.7732H59.3915L61.3815 54.1197C61.3815 54.1197 63.5927 55.8887 64.9194 56.9944C64.9194 57.4366 64.4772 57.4366 64.0349 57.4366H57.8436C57.8436 59.2056 57.6225 60.9747 57.4014 62.5225H60.0548L62.0449 59.869C62.0449 59.869 64.4772 61.638 65.8039 62.9648C65.8039 63.407 65.3617 63.407 64.9194 63.407H56.9591C55.8535 67.6084 52.979 71.1465 45.0187 73.3577L44.7976 72.9155C50.5467 70.262 52.5367 67.1662 53.4212 63.407H48.1143L47.8932 62.5225H54.3057C54.5268 60.9747 54.5268 59.2056 54.5268 57.4366H52.5367C51.21 59.2056 49.8833 60.5324 48.3355 61.638L47.8932 61.4169C49.2199 59.2056 50.3255 55.6676 50.9889 52.1296H48.1143L47.8932 51.2451H57.4014L58.0647 45.7169H49.6622L49.4411 44.8324H57.8436L59.1703 43.2845L62.4871 45.7169C62.266 45.938 62.0449 46.1592 61.3815 46.1592L60.7182 51.2451H61.8238L63.5927 48.8127ZM58.2859 65.3972C68.8996 68.493 66.4673 75.7901 62.9293 73.5789C62.266 70.9254 60.0548 67.6084 57.8436 65.6183L58.2859 65.3972Z" fill="#254F4D"/>
<path d="M73.9854 62.3014C76.1965 61.1958 77.081 59.6479 77.5233 57.8789C75.7543 57.2155 74.2065 56.331 74.2065 54.562C74.2065 53.2352 75.3121 52.1296 76.8599 52.1296C78.4078 52.1296 79.7345 53.2352 79.7345 55.4465C79.7345 58.3211 78.4078 61.638 74.6487 63.407L73.9854 62.3014Z" fill="#254F4D"/>
<path d="M101.625 64.9549C101.404 65.1761 100.962 65.3972 100.299 65.3972C100.077 69.8197 99.193 72.2521 97.8662 73.1366C96.9818 73.8 95.6551 74.0211 94.1072 74.0211C94.1072 73.1366 94.1072 72.2521 93.4439 71.8099C93.0016 71.3676 91.896 70.9254 90.5693 70.7042V70.262C91.896 70.262 94.1072 70.4831 94.5495 70.4831C94.9917 70.4831 95.4339 70.4831 95.6551 70.262C96.0973 69.8197 96.5395 68.0507 96.9818 64.9549H93.4439L92.1171 66.5028L89.0215 64.2916C89.4637 64.0704 89.906 63.8493 90.3482 63.6282C90.5693 61.8592 91.0115 59.4268 91.2327 57.8789L94.7706 59.4268H96.7606V55.2254H93.2227C91.4538 56.1099 89.6848 56.7732 87.6947 57.4366L87.4736 56.9944C90.1271 55.6676 92.5594 53.8986 94.3283 51.9085C93.665 52.1296 93.0016 52.1296 92.3383 51.4662C92.1171 50.1394 91.0115 48.5915 90.1271 47.9282L90.3482 47.707C94.5495 47.4859 95.8762 49.0338 95.6551 50.3606C96.5395 49.0338 97.424 47.707 98.0874 46.3803H89.6848L89.4637 45.4958H98.0874L100.299 43.5056L103.394 46.3803C103.173 46.6014 102.731 46.8225 102.068 46.8225C100.52 49.6972 98.0874 52.3507 94.7706 54.1197H97.2029L98.5296 52.5718L101.183 55.2254C100.962 55.4465 100.52 55.6676 100.077 55.8887V60.9746C100.077 60.9746 98.5296 61.638 97.2029 61.638H96.7606V60.5324H93.8861C93.665 61.638 93.4438 62.9648 93.2227 64.0704H96.5395L98.3085 62.3014L101.625 64.9549ZM117.988 49.0338C117.767 49.2549 117.546 49.4761 116.661 49.2549C115.556 49.6972 114.229 50.3606 112.681 51.0239C114.671 51.9085 116.661 52.5718 118.651 53.0141V53.4563C117.104 53.6775 115.998 55.0042 115.556 56.7732C114.671 56.331 113.787 55.8887 112.902 55.4465C112.681 55.4465 112.46 55.4465 112.46 55.4465V58.5423C112.46 58.7634 112.46 58.9845 112.902 58.9845H113.345H114.008C114.229 58.9845 114.45 58.9845 114.671 58.9845C114.892 58.9845 115.114 58.9845 115.335 58.9845H115.556H115.777C116.661 59.4268 116.883 59.6479 116.883 60.3113C116.883 61.638 115.777 62.0803 112.902 62.0803H112.681L115.777 64.7338C115.556 64.9549 115.114 65.1761 114.45 65.1761C113.787 66.2817 112.902 67.3873 111.797 68.493C116.883 71.3676 115.777 75.1268 112.902 74.2423C112.018 73.1366 110.691 71.8099 109.143 70.7042C106.49 72.4732 103.173 73.8 99.4141 74.6845L99.193 74.2423C102.289 73.1366 104.942 71.3676 106.932 69.1564C105.384 68.0507 103.615 67.1662 102.289 66.2817L102.51 65.8394C104.942 66.0606 106.932 66.5028 108.48 67.1662C109.143 66.5028 109.586 65.6183 110.028 64.7338H101.625L101.404 63.8493H110.028L111.797 62.0803H111.355C108.922 62.0803 108.701 61.4169 108.701 59.4268V55.2254H106.048V56.331C106.048 58.3211 105.384 61.4169 100.299 62.9648L100.077 62.7437C102.289 60.7535 102.51 58.3211 102.51 56.331V52.793L106.49 54.3408H108.259L109.364 53.2352C106.49 50.8028 104.5 47.4859 103.173 43.2845L103.615 43.0634C104.5 44.8324 105.605 46.3803 106.932 47.707C108.038 46.3803 109.143 44.6113 109.586 43.5056L113.345 45.938C113.123 46.3803 112.902 46.3803 112.018 46.1592C110.912 46.8225 109.143 47.7071 107.595 48.1493C108.701 49.0338 109.807 49.6972 111.133 50.3606C112.018 49.0338 113.123 47.4859 113.787 46.3803L117.988 49.0338Z" fill="#254F4D"/>
<path d="M134.351 63.1859C132.14 64.7338 128.823 66.9451 123.958 69.8197C123.958 70.262 123.516 70.7042 123.074 70.7042L121.305 66.2817C122.189 66.0606 123.737 65.6183 125.727 65.1761V56.5521H122.189L121.968 55.6676H125.727V47.2648H121.968L121.747 46.3803H129.044L131.034 43.7268C131.034 43.7268 133.245 45.7169 134.572 46.8225C134.572 47.2648 134.13 47.2648 133.688 47.2648H129.486V55.6676H129.929L131.476 53.0141C131.476 53.0141 133.245 54.7831 134.351 56.1099C134.351 56.5521 133.909 56.5521 133.467 56.5521H129.486V64.0704C131.034 63.6282 132.582 63.1859 134.13 62.7437L134.351 63.1859ZM152.262 69.5986C153.146 70.0408 153.367 70.4831 153.367 71.1465C153.367 72.6944 152.041 73.3577 148.282 73.3577H146.291C143.417 73.3577 142.975 72.6944 142.975 70.262V61.8592H141.427C140.763 68.7141 137.004 72.4732 127.939 74.0211L127.717 73.5789C133.909 71.3676 136.341 68.0507 137.004 63.1859C136.341 63.407 135.678 63.6282 135.014 63.6282H134.351V43.7268L138.331 45.2746H145.849L147.618 43.2845L151.377 46.1592C151.156 46.3803 150.714 46.8225 149.829 46.8225V61.8592C149.829 62.0803 147.839 62.9648 146.513 62.9648H146.07V69.1563C146.07 69.5986 146.07 69.5986 146.734 69.5986H147.839H148.945C149.166 69.5986 149.387 69.5986 149.608 69.1563C149.829 68.7141 150.493 66.9451 150.935 64.9549H151.377L152.262 69.5986ZM138.773 46.3803V50.5817H146.734V46.3803H138.773ZM146.734 55.6676V51.2451H138.773V55.6676H146.734ZM138.773 56.5521V60.9746H146.734V56.5521H138.773Z" fill="#254F4D"/>
<path d="M179.681 57.2155L182.334 53.4563C182.334 53.4563 185.43 56.1099 187.199 57.8789C187.199 58.3211 186.756 58.3211 186.093 58.3211H156.463L156.242 57.2155H179.681Z" fill="#254F4D"/>
<path d="M218.598 61.8592C218.598 61.8592 220.809 63.6282 222.135 64.9549C222.135 65.3972 221.693 65.3972 221.251 65.3972H215.502V72.9155C215.502 73.1366 214.396 74.0211 212.406 74.0211H211.743V65.3972H206.436L206.215 64.5127H211.743V58.1H207.32L207.099 57.2155H211.964V51.2451H208.868C208.647 51.4662 208.426 51.6873 207.984 51.6873H205.109V57.8789C205.109 58.1 203.34 58.7634 202.014 58.7634H201.35V56.9944H197.591C197.37 58.3211 196.928 59.4268 196.265 60.5324L198.033 61.1958H201.571L203.34 59.2056L206.878 61.8592C206.657 62.0803 206.215 62.3014 205.552 62.5225V72.031C205.552 72.2521 203.561 72.9155 202.456 72.9155H201.792V70.7042H197.591V72.9155C197.591 73.1366 196.486 74.0211 194.717 74.0211H194.053V64.7338C193.169 66.0606 192.063 67.1662 190.958 68.2718L190.515 67.8296C192.727 64.5127 193.832 60.9747 194.496 57.2155H191.621L191.4 56.331H194.717C194.938 54.7831 195.159 53.2352 195.159 51.9085H190.958L190.737 51.0239H195.159C195.159 49.4761 195.159 48.1493 195.159 46.8225H191.842L191.621 45.938H201.129L202.898 43.9479L206.436 46.6014C206.215 46.8225 205.773 47.2648 205.109 47.2648V50.3606L206.215 48.5916C206.215 48.5916 207.099 49.4761 208.205 50.5817H213.954C214.617 48.3704 215.281 45.2747 215.502 43.0634L220.367 44.6113C220.145 45.0535 219.924 45.2747 219.04 45.2747C217.934 46.8225 216.165 48.8127 214.617 50.5817H216.608L218.598 48.1493C218.598 48.1493 220.809 49.9183 221.914 51.0239C221.914 51.4662 221.472 51.4662 221.03 51.4662H215.502V57.4366H216.386L218.155 55.0042C218.155 55.0042 220.145 56.7732 221.472 57.8789C221.472 58.3211 221.03 58.3211 220.588 58.3211H215.502V64.7338H216.829L218.598 61.8592ZM197.37 62.3014V70.262H201.571V62.3014H197.37ZM201.129 51.6873H198.255C198.033 53.2352 197.812 54.7831 197.591 56.1099H201.129V51.6873ZM198.476 46.3803C198.476 47.707 198.476 49.2549 198.255 50.5817H201.129V46.3803H198.476ZM208.205 43.0634C215.723 45.938 211.964 51.6873 209.089 48.8127C209.311 46.8225 208.647 44.6113 207.763 43.2845L208.205 43.0634Z" fill="#254F4D"/>
<path d="M224.789 50.8028C232.749 52.1296 229.875 58.1 226.779 55.8887C226.558 54.1197 225.452 52.3507 224.568 51.0239L224.789 50.8028ZM232.97 50.8028C232.086 54.3408 230.317 60.7535 230.096 62.3014C229.875 63.407 229.654 64.5127 229.654 65.1761C229.654 66.9451 230.98 68.2718 230.98 71.3676C230.98 72.9155 229.875 74.0211 228.327 74.0211C227.664 74.0211 227 73.5789 226.779 72.2521C227.442 68.7141 227.221 65.6183 226.558 65.1761C226.116 64.7338 225.673 64.7338 224.789 64.5127V64.0704H226.116C226.558 64.0704 226.779 64.0704 227 63.407C227.664 62.3014 227.664 62.3014 232.307 50.8028H232.97ZM226.558 43.2845C235.182 44.6113 232.307 50.8028 228.99 48.5915C228.548 46.8225 227.221 44.8324 226.337 43.5056L226.558 43.2845ZM255.746 46.3803C255.525 46.6014 255.082 46.8225 254.419 47.0437V69.8197C254.419 72.2521 253.977 73.5789 250.218 74.0211C250.218 72.9155 249.997 72.031 249.554 71.5887C249.112 71.1465 248.449 70.7042 247.343 70.4831V70.0408C247.343 70.0408 249.775 70.262 250.439 70.262C250.881 70.262 251.102 70.0408 251.102 69.5986V61.1958H248.228C247.785 66.0606 246.459 70.7042 241.152 74.0211L240.71 73.8C242.479 71.8099 243.584 69.5986 244.248 67.1662H240.046V73.1366C240.046 73.3577 238.941 73.8 237.393 73.8H236.729V66.9451H231.423L231.201 66.0606H236.729V62.0803H236.508C236.508 62.3014 235.182 63.1859 233.855 63.1859H233.413V51.0239L236.729 52.3507H236.951V48.8127H233.192L232.97 47.9282H236.951V43.2845L241.373 43.7268C241.373 44.169 241.152 44.3901 240.267 44.6113V48.1493H240.931L242.479 45.7169C242.479 45.7169 244.248 47.4859 245.353 48.5915C245.353 49.0338 244.911 49.0338 244.469 49.0338H240.267V52.5718H240.931L242.257 51.0239L244.69 53.4563C244.469 53.6775 244.026 53.8986 243.584 54.1197V62.3014C243.584 62.5225 242.257 63.1859 240.931 63.1859H240.267V62.5225H240.046V66.2817H240.71L242.257 63.8493C242.257 63.8493 243.584 64.9549 244.469 66.0606C245.132 63.407 245.132 60.5324 245.132 57.4366V44.169L248.891 45.4958H250.881L252.429 43.5056L255.746 46.3803ZM236.287 53.2352V56.7732H240.267V53.2352H236.287ZM236.287 61.4169H240.267V57.8789H236.287V61.4169ZM251.102 60.3113V53.8986H248.228V57.4366C248.228 58.5423 248.228 59.4268 248.228 60.5324H251.102V60.3113ZM248.228 46.6014V52.793H251.102V46.6014H248.228Z" fill="#254F4D"/>
<path d="M264.591 54.7831V72.6944C264.591 73.1366 263.264 74.2423 261.495 74.2423H260.832V43.7268L264.812 45.4958H269.455L271.003 43.7268L274.541 46.3803C274.32 46.6014 273.878 46.8225 273.435 47.0437V55.6676C273.435 55.8887 271.666 56.5521 270.561 56.5521H269.897V54.7831H264.591ZM264.591 46.3803V49.4761H269.676V46.3803H264.591ZM269.676 53.6775V50.3606H264.591V53.6775H269.676ZM289.577 46.3803C289.356 46.6014 288.914 47.0437 288.25 47.0437V69.5986C288.25 72.2521 287.808 73.8 283.607 74.2423C283.607 72.9155 283.386 72.031 282.944 71.5887C282.501 70.9254 281.838 70.4831 280.29 70.262C279.627 70.4831 278.521 70.9254 277.858 70.9254H277.194V68.9352H271.445V70.262C271.445 70.4831 269.897 71.3676 268.35 71.3676H267.907V57.4366L271.445 58.9845H276.752L278.521 57.2155L282.059 59.869C281.838 60.0901 281.396 60.3113 280.732 60.5324V70.0408C281.617 70.0408 283.165 70.262 283.607 70.262C284.049 70.262 284.27 70.0408 284.27 69.5986V55.2254H279.184C279.184 55.4465 277.637 56.331 276.089 56.331H275.647V43.9479L279.406 45.4958H284.049L285.818 43.5056L289.577 46.3803ZM271.666 59.6479V63.1859H277.416V59.6479H271.666ZM277.416 67.8296V64.0704H271.666V67.8296H277.416ZM279.406 46.3803V49.4761H284.491V46.3803H279.406ZM284.491 53.6775V50.3606H279.406V53.6775H284.491Z" fill="#254F4D"/>
<path d="M322.745 51.4662C323.408 51.9085 323.851 52.1296 323.851 52.793C323.851 53.8986 323.187 54.3408 321.197 54.562L324.514 57.6577C324.293 57.8789 323.851 58.1 323.408 58.1C322.303 58.9845 320.313 60.3113 318.986 60.9746L318.765 60.7535C318.986 59.869 319.207 58.5423 319.428 57.2155H311.468V61.4169H315.227L316.996 59.2056L320.976 62.3014C320.755 62.5225 320.313 62.9648 319.428 63.1859V68.0507C319.428 70.262 318.765 71.5887 314.785 72.031C314.785 70.9253 314.564 70.262 314.343 69.8197C313.9 69.3775 313.458 68.9352 312.131 68.7141V68.2718C312.131 68.2718 314.564 68.493 315.227 68.493C315.669 68.493 315.89 68.2718 315.89 67.8296V62.5225H311.689V73.1366C311.689 73.3577 310.362 74.2422 308.593 74.2422H307.93V62.5225H303.508V70.9253C303.508 71.1465 301.739 72.031 300.191 72.031H299.528V59.869L303.508 61.4169H307.488V57.2155H298.864C299.085 59.2056 298.422 60.7535 296.874 61.4169C294.442 62.5225 292.673 59.2056 295.547 57.8789C296.432 57.4366 297.537 56.331 297.759 54.562C296.874 55.0042 295.99 55.2253 294.663 55.6676L294.442 55.4465C297.759 53.6775 298.643 51.2451 298.864 48.8127H294.442L294.221 47.9282H298.864V43.2845L303.508 43.7268C303.508 44.169 303.287 44.3901 302.402 44.6113V47.9282H304.392V43.5056L308.815 43.9479C308.815 44.3901 308.593 44.6113 307.709 44.8324V48.1493H309.92V43.7268L314.343 44.169C314.343 44.6113 314.121 44.8324 313.237 45.0535V48.3704H315.227V43.7268L319.649 44.169C319.649 44.6113 319.207 44.8324 318.544 45.0535V48.5915H319.871L321.418 45.938C321.418 45.938 323.408 47.707 324.293 49.0338C324.293 49.476 323.851 49.4761 323.408 49.4761H318.323V51.6873C318.323 52.1296 318.323 52.1296 318.765 52.1296H319.649H320.534C320.755 52.1296 320.976 52.1296 321.197 52.1296C321.418 52.1296 321.639 52.1296 321.861 51.9084H322.082L322.745 51.4662ZM320.755 54.562C320.313 54.562 320.092 54.562 319.649 54.562H317.88C315.448 54.562 315.227 53.8986 315.227 51.9084V49.0338H313.237V54.3408C313.237 54.562 311.689 55.2253 310.584 55.2253H309.92V53.8986H307.709V54.7831C307.709 55.0042 306.161 55.6676 305.056 55.6676H304.392V49.2549H302.402C302.181 51.2451 301.075 53.4563 297.98 55.0042C298.201 55.6676 298.422 56.1098 298.643 56.7732H319.207L320.755 54.562ZM307.488 48.8127V52.5718H309.699V48.8127H307.488Z" fill="#254F4D"/>
<path d="M354.586 68.493C354.586 68.493 357.24 70.4831 359.009 72.031C359.009 72.4732 358.566 72.4733 358.124 72.4733H328.273L328.052 71.5887H341.319V61.638H332.253L332.032 60.7535H341.319V52.3507H335.349C333.359 55.6676 330.926 58.5423 328.052 60.5324L327.61 60.3113C330.263 56.5521 332.695 50.5817 333.801 44.6113L339.329 46.3803C339.329 46.8225 338.887 47.0437 338.002 47.0437C337.339 48.8127 336.676 50.3606 335.791 51.6873H341.098V43.7268L346.626 44.169C346.626 44.6113 346.184 45.0535 345.299 45.0535V51.6873H350.606L352.817 48.8127C352.817 48.8127 355.471 50.5817 357.019 52.1296C357.019 52.5718 356.576 52.5718 356.134 52.5718H345.52V60.9747H349.722L351.933 58.1C351.933 58.1 354.586 60.0902 356.134 61.4169C356.134 61.8592 355.692 61.8592 355.25 61.8592H345.52V71.8099H352.375L354.586 68.493Z" fill="#254F4D"/>
<path d="M393.724 50.3606C393.503 50.5817 393.061 50.8028 392.177 51.0239C391.734 63.6282 390.85 70.0408 388.86 72.031C387.533 73.3577 385.985 73.8 383.774 73.8C383.774 72.4732 383.553 71.5887 383.111 71.1465C382.447 70.4831 381.121 70.0408 379.573 69.5986V69.1563C381.342 69.3775 383.774 69.3775 384.658 69.3775C385.322 69.3775 385.543 69.1563 385.985 68.9352C387.312 67.8296 388.196 60.9746 388.639 50.3606H388.417C386.87 59.2056 382.668 67.1662 374.045 71.8099L373.824 71.5887C380.236 66.0606 383.553 58.3211 384.437 50.3606H383.553C381.784 56.331 378.246 61.638 372.939 65.176L372.718 64.7338C376.477 60.7535 379.13 55.4465 380.015 50.1394H378.909C377.14 52.7929 375.15 55.0042 372.939 56.331L372.497 56.1099C373.381 54.7831 374.266 53.2352 375.15 51.6873H371.612V58.3211C372.939 57.8789 374.487 57.6577 375.814 57.2155V57.6577C374.708 58.3211 373.16 59.2056 371.391 60.3113V72.9155C371.391 73.1366 369.843 74.0211 368.517 74.0211H367.853V62.5225C366.969 63.1859 365.863 63.6282 364.758 64.2915C364.537 64.7338 364.315 64.9549 363.873 65.176L362.104 60.7535C363.21 60.5324 365.2 60.0901 367.632 59.4268V51.6873H365.421C364.758 53.6775 363.652 55.6676 362.547 57.2155L362.104 56.9944C362.989 53.6775 363.431 49.2549 363.652 45.0535L367.853 45.7169V42.6211L372.718 43.0634C372.718 43.5056 372.497 43.9479 371.612 43.9479V50.5817H371.833L373.602 47.9282C373.602 47.9282 374.708 49.0338 375.814 50.1394C376.698 47.9282 377.362 45.2746 377.804 42.6211L382.889 44.169C382.668 44.6113 382.447 44.8324 381.563 44.8324C381.121 46.3803 380.457 47.9282 379.573 49.2549H388.417L390.408 47.0437L393.724 50.3606ZM367.632 51.0239V46.8225C367.411 47.0436 367.19 47.0437 366.748 47.0437C366.527 48.3704 366.084 49.6972 365.642 51.0239H367.632Z" fill="#254F4D"/>
<path d="M423.133 68.2718C423.133 68.2718 425.787 70.262 427.556 71.8099C427.556 72.2521 427.113 72.2521 426.671 72.2521H396.82L396.599 71.3676H401.463V54.1197L406.77 54.562C406.77 55.0042 406.549 55.4465 405.444 55.4465V71.3676H410.529V47.2648H398.589L398.368 46.3803H419.816L422.249 43.2845C422.249 43.2845 424.902 45.2746 426.45 46.6014C426.45 47.0437 426.008 47.0437 425.566 47.0437H414.952V57.6577H418.932L421.143 54.7831C421.143 54.7831 423.797 56.7732 425.344 58.1C425.344 58.3211 424.902 58.5422 424.46 58.5422H414.952V70.9253H421.143L423.133 68.2718Z" fill="#254F4D"/>
<path d="M11.4086 99.6718C11.4086 99.893 10.9664 100.114 10.303 100.335V114.93C10.303 115.151 8.53408 116.035 6.98624 116.035H6.32291V102.989C4.77507 104.315 3.0061 105.421 1.01602 106.527L0.794922 106.085C4.99619 102.546 8.09186 97.4606 10.0819 92.5958H1.90052L1.67939 91.7113H10.5242C11.4086 89.2789 12.072 87.0676 12.5142 84.8563L18.0422 86.4042C18.0422 86.8465 17.6 87.0676 16.7155 87.0676C16.2733 88.6155 15.6099 90.1634 14.7254 91.7113H24.8969L27.3293 88.8366C27.3293 88.8366 29.9827 90.8268 31.5305 92.1535C31.5305 92.5958 31.0883 92.5958 30.6461 92.5958H14.2832C13.1776 94.807 11.6298 97.0183 9.8608 99.2296L11.4086 99.6718ZM27.9926 110.286C27.9926 110.286 30.4249 112.276 31.9728 113.603C31.9728 114.045 31.5305 114.045 31.0883 114.045H10.9664L10.7453 113.161H18.2634V102.989H12.2931L12.072 102.104H18.2634V94.3648L23.3491 94.807C23.3491 95.2493 23.128 95.4704 22.2435 95.6916V102.104H24.0125L26.0025 99.4507C26.0025 99.4507 28.4349 101.22 29.7616 102.546C29.7616 102.989 29.3193 102.989 28.8771 102.989H22.0224V113.161H25.5603L27.9926 110.286Z" fill="#254F4D"/>
<path d="M40.8174 96.5761V114.708C40.8174 115.151 39.4907 116.035 37.7217 116.035H37.0583V85.7409L40.8174 87.5099H45.2398L46.7876 85.7409L50.3255 88.3944C50.1044 88.6155 49.6622 88.8366 48.9988 89.0578V97.2394C48.9988 97.4606 47.2299 98.3451 46.1243 98.3451H45.4609V96.7972H40.8174V96.5761ZM40.8174 88.3944V91.4901H45.682V88.3944H40.8174ZM45.682 95.6916V92.5958H40.8174V95.6916H45.682ZM55.4113 106.527V113.603C55.4113 113.824 54.5268 114.266 52.7579 114.266H52.0945V106.306H48.9988C48.5566 109.18 47.2298 112.497 42.3652 114.487L42.1441 114.045C44.7975 111.834 45.682 108.959 45.9031 106.306H41.923L41.7019 105.421H45.9031C45.9031 105.2 45.9031 104.758 45.9031 104.315V100.556H42.8075L42.5863 99.6718H54.5268L56.2957 97.4606C56.2957 97.4606 58.2858 99.0085 59.3914 100.114C59.3914 100.335 58.9492 100.556 58.5069 100.556H55.1901V105.421L56.738 103.21C56.738 103.21 58.5069 104.758 59.6125 105.863C59.6125 106.306 59.1703 106.306 58.7281 106.306H55.4113V106.527ZM52.0945 105.642V100.777H49.2199V104.537C49.2199 104.758 49.2199 105.2 49.2199 105.642H52.0945ZM66.025 88.3944C65.8039 88.6155 65.3617 89.0578 64.6983 89.0578V111.613C64.6983 114.266 64.256 115.593 60.0548 116.035C60.0548 114.708 59.8337 113.824 59.3914 113.382C58.9492 112.718 58.507 112.276 57.1802 112.055V111.613C57.1802 111.613 59.6125 111.834 60.2759 111.834C60.7181 111.834 60.9393 111.613 60.9393 111.17V96.5761H55.8535V96.7972C55.8535 97.0183 54.3057 97.9028 52.7579 97.9028H52.3156V85.962L56.0746 87.5099H60.7181L62.4871 85.5197L66.025 88.3944ZM55.8535 88.3944V91.4901H60.9393V88.3944H55.8535ZM60.9393 95.6916V92.5958H55.8535V95.6916H60.9393Z" fill="#254F4D"/>
<path d="M69.5631 93.038C78.1868 94.3648 74.6489 100.556 71.5532 98.1239C71.3321 96.3549 70.2265 94.5859 69.342 93.2591L69.5631 93.038ZM79.7347 91.269C78.4079 95.2493 76.1967 102.546 75.7545 104.315C75.5334 105.421 75.3123 106.527 75.3123 107.411C75.3123 109.18 76.639 110.507 76.639 113.382C76.639 115.151 75.5334 116.035 73.9855 116.035C73.3222 116.035 72.4377 115.593 72.2166 114.266C72.8799 110.728 72.6588 107.632 71.9955 107.19C71.5532 106.969 70.8899 106.748 70.2265 106.748V106.084H71.7743C72.2166 106.084 72.4377 106.084 72.6588 105.421C73.3222 104.094 73.3222 104.094 79.2924 91.0479L79.7347 91.269ZM72.4377 85.2986C81.7247 86.6253 78.4079 93.2591 74.87 90.8267C74.4278 89.0577 73.1011 86.8465 71.9955 85.5197L72.4377 85.2986ZM100.299 88.3944C99.8565 88.6155 99.1932 88.8366 98.0876 88.3944C94.5497 89.0577 89.0217 89.7211 83.9359 89.9422V97.6817C83.9359 103.431 83.4937 111.17 77.0812 116.256L76.639 115.814C80.1769 110.286 80.398 103.652 80.398 97.4605V87.2887L84.3781 89.0577C88.8005 87.9521 93.8863 86.4042 96.5397 85.0775L100.299 88.3944ZM100.52 99.2296C100.299 99.4507 99.8565 99.6718 99.1932 99.2296C98.0876 99.8929 95.8764 100.777 93.8863 101.662C95.4341 106.306 97.8665 110.286 101.404 112.055V112.276C100.078 112.718 98.972 114.045 98.3087 116.035C93.4441 111.613 92.1173 104.758 91.6751 93.9225C90.7906 93.9225 90.1273 93.9225 89.2428 93.9225V110.728C90.3484 110.507 91.6751 110.065 93.0018 109.623V110.065C91.8962 110.949 89.685 112.939 87.0316 114.708C86.8105 115.372 86.3682 115.593 85.926 115.814L84.157 112.055C85.4838 111.392 85.7049 111.17 85.7049 110.286V91.4901L89.4639 92.3746C92.1173 91.4901 94.7708 90.3845 96.3186 89.5L99.8565 92.8169C99.4143 93.038 98.7509 93.2591 97.8665 92.8169C96.3186 93.038 94.3285 93.2591 92.1173 93.4803C92.3385 95.6915 92.7807 97.9028 93.4441 100.114C94.7708 98.3451 96.0975 96.3549 96.7609 95.0282L100.52 99.2296Z" fill="#254F4D"/>
<path d="M114.671 110.286C116.883 110.065 119.315 109.844 121.526 109.623V110.065C118.43 111.392 113.787 112.939 106.932 114.93C106.711 115.372 106.269 115.593 106.048 115.814L104.279 111.392C105.827 111.392 108.038 111.17 111.134 110.728V106.306H106.269L106.048 105.421H111.134V101.22H105.606L105.384 100.335H114.229C114.671 98.5662 115.114 96.3549 115.335 94.5859H108.259C114.671 97.2394 111.134 102.104 108.48 99.6718C108.701 97.9028 108.038 95.9127 107.375 94.5859H104.5L104.279 93.7014H109.365V85.5197L113.124 85.962C113.124 86.4042 112.902 86.6253 112.239 86.6253V93.7014H113.787V85.5197L117.767 85.962C117.767 86.4042 117.325 86.6253 116.662 86.8465V93.9225H118.43L120.199 91.7113C120.199 91.7113 122.19 93.2591 123.516 94.3648C123.516 94.807 123.074 94.807 122.632 94.807H116.44L119.978 95.6915C119.978 96.1338 119.536 96.3549 118.652 96.3549C117.767 97.6817 116.219 99.2296 114.893 100.556H116.883L118.652 98.3451C118.652 98.3451 120.642 99.8929 121.747 100.999C121.747 101.22 121.305 101.441 120.863 101.441H114.893V105.642H115.998L117.767 103.431C117.767 103.431 119.757 104.979 121.084 106.084C121.084 106.527 120.642 106.527 120.199 106.527H114.893V110.286H114.671ZM104.721 85.962C111.797 88.8366 108.48 94.1437 105.827 91.7113C105.827 89.9422 105.163 87.731 104.279 86.1831L104.721 85.962ZM123.074 87.731C122.853 88.1732 122.411 88.3944 121.747 88.3944C120.199 89.9422 118.43 91.4901 116.883 92.3746L116.44 92.1535C117.104 90.6056 117.767 88.1732 118.43 85.962L123.074 87.731ZM133.467 91.9324C133.467 91.9324 135.236 93.7014 136.12 94.807C136.12 95.2493 135.678 95.2493 135.236 95.2493H131.919V111.392C131.919 114.045 131.255 115.593 127.054 115.814C127.054 114.708 126.833 113.824 126.17 113.161C125.727 112.497 124.843 112.055 123.295 111.834V111.392C123.295 111.392 126.612 111.613 127.496 111.613C127.939 111.613 128.16 111.392 128.16 110.949V95.0282H121.305L121.084 94.1436H128.16V85.0775L133.024 85.5197C133.024 85.962 132.582 86.4042 131.919 86.4042V93.9225L133.467 91.9324ZM122.19 97.6817C130.592 101.441 126.612 108.296 123.516 104.979C123.737 102.546 122.853 99.893 121.968 97.9028L122.19 97.6817Z" fill="#254F4D"/>
<path d="M142.754 104.315C144.965 103.21 145.849 101.662 146.292 99.893C144.523 99.2296 142.975 98.3451 142.975 96.5761C142.975 95.2493 144.08 94.1437 145.628 94.1437C147.176 94.1437 148.503 95.2493 148.503 97.4606C148.503 100.335 147.176 103.652 143.417 105.421L142.754 104.315Z" fill="#254F4D"/>
<path d="M183.219 103.652C183.219 103.652 185.651 105.642 187.199 106.969C187.199 107.411 186.756 107.411 186.314 107.411H156.463L156.242 106.527H163.76V91.4901H157.348L157.126 90.6056H163.76V85.2986L168.846 85.7408C168.846 86.1831 168.625 86.6253 167.74 86.6253V90.3845H176.364V85.0775L181.45 85.5197C181.45 85.962 181.228 86.4042 180.123 86.4042V90.1634H181.007L182.997 87.5098C182.997 87.5098 185.209 89.2789 186.756 90.6056C186.756 91.0479 186.314 91.0479 185.872 91.0479H180.123V106.084H181.228L183.219 103.652ZM156.242 115.814C160.222 113.824 164.423 110.507 166.192 107.854L171.057 110.286C170.836 110.728 170.172 110.949 169.067 110.728C166.192 112.939 161.328 114.93 156.463 116.035L156.242 115.814ZM167.519 91.269V95.4704H176.143V91.269H167.519ZM167.519 100.999H176.143V96.576H167.519V100.999ZM167.519 106.527H176.143V101.883H167.519V106.527ZM174.374 108.738C192.284 110.728 185.43 118.468 182.113 115.151C180.786 113.382 178.354 110.949 174.153 109.18L174.374 108.738Z" fill="#254F4D"/>
<path d="M221.03 93.2591C220.809 93.4803 220.367 93.9225 219.703 93.9225V104.758C219.703 104.979 217.713 105.863 216.165 105.863H215.502V102.989H207.984V114.487C207.984 114.93 206.215 115.814 204.667 115.814H204.004V102.768H196.707V104.758C196.707 105.2 194.938 106.084 193.169 106.084H192.506V90.6056L196.928 92.3746H204.004V85.0775L209.311 85.5197C209.311 85.962 209.09 86.4042 207.984 86.4042V92.1535H215.06L216.829 90.1634L221.03 93.2591ZM203.783 102.104V93.2591H196.486V102.104H203.783ZM215.502 102.104V93.2591H207.984V102.104H215.502Z" fill="#254F4D"/>
<path d="M248.228 99.2296L250.881 95.4704C250.881 95.4704 253.977 98.1239 255.746 99.8929C255.746 100.335 255.304 100.335 254.64 100.335H225.01L224.789 99.2296H248.228Z" fill="#254F4D"/>
<path d="M264.148 94.807C262.6 96.3549 261.053 97.4606 259.284 98.5662L258.841 98.3451C261.495 95.2493 264.148 90.1634 265.696 85.0775L270.782 87.0676C270.561 87.5099 270.118 87.731 269.455 87.731C269.013 88.6155 268.571 89.2789 268.128 90.1634L268.349 90.3845H275.868C275.425 90.3845 274.983 90.1634 274.541 89.7211C274.32 87.9521 273.435 86.4042 272.551 85.0775L272.772 84.8563C279.848 85.5197 278.963 89.7211 276.531 90.1634H282.28L284.27 87.5099C284.27 87.5099 286.481 89.2789 287.808 90.6056C287.808 91.0479 287.366 91.0479 286.924 91.0479H277.636V93.9225H281.174L282.943 91.4901C282.943 91.4901 285.155 93.2591 286.26 94.3648C286.26 94.807 285.818 94.807 285.376 94.807H277.415V97.6817H280.953L282.722 95.2493C282.722 95.2493 284.933 96.7972 286.26 98.1239C286.26 98.5662 285.818 98.5662 285.376 98.5662H277.415V101.662H282.943L284.933 99.0085C284.933 99.0085 287.366 100.777 288.692 102.104C288.692 102.546 288.25 102.546 287.808 102.546H267.686V103.21C267.686 103.431 266.581 104.315 264.59 104.315H263.927V94.807H264.148ZM286.702 106.748C286.481 107.19 286.039 107.19 285.155 107.19C283.607 108.738 282.059 110.065 280.069 111.17C283.386 111.613 286.702 112.055 290.24 112.055V112.497C288.471 112.939 287.587 114.266 287.366 116.256C282.943 115.814 278.963 114.93 275.646 113.382C271.003 115.151 265.254 116.035 259.284 116.256L259.062 115.814C263.927 114.93 268.571 113.603 272.551 111.834C270.118 110.507 268.128 108.738 266.58 106.306H261.937L261.716 105.421H280.511L283.164 103.21L286.702 106.748ZM267.465 106.306C269.455 108.075 272.108 109.401 275.425 110.286C277.415 109.18 278.963 107.854 280.29 106.306H267.465ZM268.128 90.8268V93.7014H273.877V90.8268H268.128ZM273.877 94.807H268.128V97.6817H273.877V94.807ZM273.877 98.7873H268.128V101.883H273.877V98.7873Z" fill="#254F4D"/>
<path d="M320.091 110.507C320.091 110.507 322.745 112.497 324.514 114.045C324.514 114.487 324.072 114.487 323.629 114.487H293.557L293.336 113.603H306.603V103.652H297.537L297.316 102.768H306.603V94.3648H300.633C298.643 97.6817 296.211 100.556 293.336 102.546L292.894 102.325C295.547 98.5662 297.98 92.5958 299.085 86.6253L304.613 88.3944C304.613 88.8366 304.171 89.0577 303.286 89.0577C302.623 90.8268 301.96 92.3746 301.075 93.7014H306.382V85.7408L311.91 86.1831C311.91 86.6253 311.468 87.0676 310.583 87.0676V93.7014H315.89L318.101 90.8268C318.101 90.8268 320.755 92.5958 322.303 94.1437C322.303 94.5859 321.86 94.5859 321.418 94.5859H310.804V102.989H315.006L317.217 100.114C317.217 100.114 319.87 102.104 321.418 103.431C321.418 103.873 320.976 103.873 320.534 103.873H310.804V113.824H317.659L320.091 110.507Z" fill="#254F4D"/>
<path d="M359.23 92.3747C359.009 92.5958 358.566 92.8169 357.682 93.038C357.24 105.642 356.355 112.055 354.365 114.045C353.038 115.372 351.491 115.814 349.279 115.814C349.279 114.487 349.058 113.603 348.616 113.161C347.953 112.497 346.626 112.055 345.078 111.613V111.17C346.847 111.392 349.279 111.392 350.164 111.392C350.827 111.392 351.048 111.17 351.491 110.949C352.817 109.844 353.702 102.989 354.144 92.3747H353.923C352.375 101.22 348.174 109.18 339.55 113.824L339.329 113.603C345.741 108.075 349.058 100.335 349.943 92.3747H348.837C347.068 98.3451 343.53 103.652 338.223 107.19L338.002 106.748C341.761 102.768 344.415 97.4606 345.299 92.1535H344.194C342.425 94.807 340.435 97.0183 338.223 98.3451L337.781 98.1239C338.666 96.7972 339.55 95.2493 340.435 93.7014H336.897V100.335C338.223 99.893 339.771 99.6718 341.098 99.2296V99.6718C339.992 100.335 338.444 101.22 336.676 102.325V114.708C336.676 114.93 335.128 115.814 333.801 115.814H333.359V104.315C332.474 104.979 331.369 105.421 330.263 106.085C330.042 106.527 329.821 106.748 329.379 106.969L327.61 102.546C328.715 102.325 330.705 101.883 333.138 101.22V93.4803H330.926C330.263 95.4704 329.157 97.4606 328.052 99.0085L327.61 98.7873C328.494 95.4704 328.936 91.0479 329.157 86.8465L333.359 87.5099V84.4141L338.223 84.8563C338.223 85.2986 338.002 85.7409 337.118 85.7409V92.3747H337.339L339.108 89.7211C339.108 89.7211 340.213 90.8268 341.319 91.9324C342.204 89.7211 342.867 87.0676 343.309 84.4141L348.395 85.962C348.174 86.4042 347.953 86.6253 347.068 86.6253C346.626 88.1732 345.963 89.7211 345.078 91.0479H353.923L355.913 88.8366L359.23 92.3747ZM333.359 93.038V88.8366C333.138 89.0577 332.917 89.0578 332.474 89.0578C332.253 90.3845 331.811 91.7113 331.369 93.038H333.359Z" fill="#254F4D"/>
<path d="M372.718 101.441C372.497 101.662 372.276 101.883 371.391 101.883C370.728 104.315 369.401 106.969 367.19 108.959C367.411 108.959 367.632 109.18 367.853 109.18C370.507 111.392 374.487 111.834 382.005 111.834C385.985 111.834 389.081 111.834 393.061 111.613V112.055C391.513 112.276 390.629 113.824 390.408 115.372H380.678C373.381 115.372 370.507 114.045 367.632 110.507C367.19 109.844 366.748 109.844 366.527 110.507C366.085 111.613 365.2 113.382 364.537 114.93C364.537 115.151 364.537 115.372 364.316 115.593L361.662 111.834C362.989 111.17 364.979 109.623 366.085 108.959C367.19 106.748 367.853 103.873 368.296 101.441H366.527L365.421 102.546L362.768 100.556C362.989 100.335 363.652 100.114 364.094 99.8929C365.2 98.3451 366.527 96.1338 367.411 94.5859H362.989L362.768 93.7014H367.632L369.18 92.1535L372.276 95.0282C372.055 95.2493 371.391 95.4704 370.507 95.4704C369.622 96.7972 368.296 99.0084 367.19 100.777H368.296L370.065 99.0084L372.276 100.777L372.055 100.114H377.583C377.141 100.114 376.919 99.8929 376.477 99.6718C376.477 98.7873 376.035 97.6817 375.593 97.2394L375.814 97.0183C380.457 97.2394 379.573 99.893 377.804 100.114H379.352L380.9 98.3451C380.9 98.3451 382.668 99.6718 383.995 100.556C383.995 100.999 383.553 100.999 383.111 100.999H376.919C376.919 101.662 376.698 102.325 376.698 102.989H378.909L380.457 101.441L383.332 103.652C383.111 103.873 382.669 104.094 382.226 104.094C382.005 107.411 381.563 108.959 380.457 109.844C379.794 110.286 378.909 110.507 378.025 110.507C378.025 109.844 377.804 109.18 377.583 108.959C377.141 108.517 376.477 108.296 375.814 108.075V107.632C376.477 107.632 377.804 107.854 378.246 107.854C378.467 107.854 378.688 107.854 378.688 107.632C378.909 107.19 379.131 106.084 379.352 103.873H376.698C376.035 106.306 374.708 108.738 371.612 110.507L371.17 110.065C373.603 107.19 373.824 103.873 374.045 100.999H372.718V101.441ZM364.094 85.5197C372.718 86.8465 369.844 93.038 366.527 90.8267C366.306 89.0577 364.979 86.8465 363.652 85.7408L364.094 85.5197ZM375.15 97.9028C375.15 98.1239 373.824 98.7873 372.497 98.7873H372.055V87.731L375.15 89.0577H375.372C375.593 87.731 375.593 86.1831 375.593 85.0775L380.236 85.7408C380.236 86.1831 379.794 86.4042 379.131 86.4042C378.467 87.2887 377.362 88.1732 376.477 89.0577H378.909L380.236 87.5098L383.111 89.7211C382.89 89.9422 382.447 90.1634 382.005 90.1634V97.0183C382.005 97.2394 380.457 97.9028 379.573 97.9028H379.131V97.0183H375.15V97.9028ZM375.15 89.9422V92.5958H379.131V89.9422H375.15ZM379.131 96.1338V93.7014H375.15V96.1338H379.131ZM382.005 98.5662C383.332 95.0282 383.995 89.9422 383.995 85.2986L388.418 85.962C388.418 86.4042 387.975 86.6253 387.312 86.8465C387.091 88.6155 386.649 90.1634 385.985 91.7113H388.196L389.965 89.5C389.965 89.5 391.956 91.0479 393.061 92.1535C393.061 92.5958 392.619 92.5958 392.177 92.5958H390.85C390.629 96.1338 390.187 99.2296 389.081 102.104C393.503 108.075 391.734 112.497 389.081 110.286C388.86 108.738 388.196 106.969 387.533 105.2C386.206 107.632 384.437 109.623 381.784 111.392L381.563 110.949C383.995 108.296 385.322 105.421 386.206 102.104C385.322 100.335 384.437 98.5662 383.553 97.0183L383.995 96.7972C384.88 97.6817 385.985 98.5662 386.649 99.2296C387.091 97.0183 387.312 94.807 387.312 92.3746H385.543C384.659 94.807 383.553 96.7972 382.226 98.3451L382.005 98.5662Z" fill="#254F4D"/>
<path d="M406.77 89.2789C406.77 89.2789 408.76 90.8268 409.866 91.9324C409.866 92.3746 409.424 92.3747 408.982 92.3747H396.82L396.599 91.4901H405.223L406.77 89.2789ZM403.896 95.6916L405.444 93.7014C405.444 93.7014 407.213 95.2493 408.318 96.1338C408.318 96.5761 407.876 96.576 407.434 96.576H397.926L397.704 95.6916H403.896ZM405.444 97.9028C405.444 97.9028 407.213 99.2296 408.318 100.335C408.318 100.777 407.876 100.777 407.434 100.777H397.926L397.704 99.8929H403.896L405.444 97.9028ZM409.203 105.2C408.982 105.421 408.539 105.642 407.876 105.863V113.603C407.876 113.824 406.107 114.708 405.001 114.708H404.338V112.718H401.463V114.708C401.463 115.151 399.916 115.814 398.589 115.814H398.147V102.989L401.685 104.315H404.117L405.665 102.546L409.203 105.2ZM399.695 85.5197C408.097 86.8465 404.338 92.8169 401.021 90.1634C401.021 88.6155 400.137 86.8465 399.252 85.7408L399.695 85.5197ZM404.559 111.834V105.421H401.685V111.834H404.559ZM422.691 98.3451L426.229 100.999C426.008 101.22 425.566 101.441 424.902 101.662V111.613C424.902 114.045 424.46 115.372 420.48 115.593C420.48 114.487 420.259 113.603 419.816 113.161C419.374 112.718 418.711 112.276 417.384 112.055V111.613C417.384 111.613 420.038 111.834 420.701 111.834C421.143 111.834 421.364 111.613 421.364 111.17V108.517H414.288C414.067 111.392 412.741 114.045 408.318 116.035L408.097 115.814C410.75 113.161 410.972 109.844 410.972 106.306V98.5662L414.952 100.114H420.922L422.691 98.3451ZM424.239 94.5859C424.239 94.5859 426.229 96.3549 427.556 97.4606C427.556 97.9028 427.113 97.9028 426.671 97.9028H408.76L408.539 97.0183H415.836V93.9225H410.751L410.529 93.038H416.057V90.1634H409.424L409.203 89.2789H416.057V85.2986L420.701 85.7408C420.701 86.1831 420.48 86.4042 419.595 86.6253V89.2789H421.806L423.575 86.8465C423.575 86.8465 425.566 88.3944 426.892 89.7211C426.892 90.1634 426.45 90.1634 426.008 90.1634H419.595V93.038H421.143L422.912 90.8268C422.912 90.8268 424.902 92.3747 426.008 93.4803C426.008 93.9225 425.566 93.9225 425.123 93.9225H419.595V97.0183H422.47L424.239 94.5859ZM421.364 107.854V104.979H414.51V106.527C414.51 106.969 414.51 107.411 414.51 107.854H421.364ZM414.51 101.22V104.094H421.364V101.22H414.51Z" fill="#254F4D"/>
<path d="M12.7353 128.639C12.5142 129.082 12.0719 129.303 11.4086 129.303C10.303 131.956 9.19738 134.168 8.09178 136.379L10.0819 137.042C10.0819 137.263 9.63964 137.485 8.97628 137.706V156.944C8.97628 157.165 7.20732 158.049 5.65949 158.049H4.99612V140.58C3.6694 142.128 2.34268 143.234 1.01596 144.339L0.57373 144.118C3.22717 139.917 5.88061 133.504 7.42845 126.87L12.7353 128.639ZM19.3689 141.244C19.1478 141.686 18.7055 141.907 18.0422 141.907C16.0521 146.33 13.3987 150.089 10.5241 152.3L10.0819 152.079C11.8508 148.983 13.6198 144.339 14.5043 139.696L19.3689 141.244ZM10.0819 141.023C12.2931 137.706 14.5043 132.399 15.6099 127.092L20.6956 128.861C20.4745 129.303 20.0323 129.524 19.3689 129.524C18.7055 130.851 18.0422 132.177 17.3788 133.504H26.8869L28.877 131.514L32.4149 134.831C32.1938 135.052 31.7516 135.273 31.0882 135.273C29.9826 136.6 28.2137 138.59 26.6658 139.696L26.4447 139.475C26.6658 138.148 27.1081 136.158 27.3292 134.61H16.9366C15.1676 137.485 12.9564 139.696 10.5241 141.465L10.0819 141.023ZM19.59 134.831L24.6758 135.273C24.6758 135.715 24.2335 135.937 23.5702 136.158V153.406C23.5702 156.059 22.9068 157.607 18.4844 158.049C18.2633 156.723 18.2633 155.838 17.5999 155.175C16.9366 154.511 16.2732 154.069 14.5043 153.848V153.406C14.5043 153.406 18.0422 153.627 18.9267 153.627C19.3689 153.627 19.59 153.406 19.59 152.963V134.831ZM25.118 140.138C35.5106 146.108 32.4149 154.29 28.6559 150.973C28.2137 147.435 26.4447 143.455 24.8969 140.359L25.118 140.138Z" fill="#254F4D"/>
<path d="M62.4873 142.792C62.4873 142.792 64.9196 144.782 66.4675 146.108C66.4675 146.551 66.0252 146.551 65.583 146.551H35.7318L35.5107 145.666H43.471V136.379H37.0586L36.8374 135.494H43.6922V127.313L48.7779 127.755C48.7779 128.197 48.5568 128.639 47.4512 128.639V135.273H54.3059V127.092L59.3917 127.534C59.3917 127.976 59.1705 128.418 58.0649 128.418V135.052H59.8339L61.824 132.399C61.824 132.399 64.0352 134.168 65.3619 135.494C65.3619 135.937 64.9196 135.937 64.4774 135.937H58.0649V145.224H60.2761L62.4873 142.792ZM35.5107 157.828C39.4909 155.175 43.2499 150.973 45.0189 147.656L49.6624 150.531C49.4413 150.752 49.2202 150.973 48.3357 150.973C45.6823 153.848 40.8176 156.723 35.7318 158.27L35.5107 157.828ZM47.2301 145.666H54.0848V136.379H47.2301V145.666ZM53.6425 148.541C68.0153 150.752 66.0252 159.818 61.3817 157.607C59.8339 154.511 56.296 150.973 53.4214 148.762L53.6425 148.541Z" fill="#254F4D"/>
<path d="M98.5297 150.973C98.3085 151.194 98.0874 151.415 97.2029 151.194C95.434 151.415 93.2228 151.858 91.0116 152.079C93.8861 153.406 97.4241 154.069 100.962 154.511V154.954C99.4141 155.396 98.5297 156.723 98.3085 158.492C92.5594 156.944 88.3582 154.29 86.147 148.762H85.7047C84.8202 149.646 83.7146 150.31 82.3879 150.973V154.069C84.1569 153.848 86.147 153.406 88.3582 152.963V153.406C86.8103 154.29 83.7146 156.059 79.9556 157.828C79.7345 158.27 79.2923 158.492 79.0711 158.713L77.3022 155.175C78.4078 154.511 78.4078 154.29 78.4078 153.627V152.521C75.7543 153.406 72.8798 154.29 69.7841 154.732L69.563 154.29C73.7643 152.963 77.3022 150.973 79.7345 148.762H70.2264L70.0052 147.877H78.85V145.666H72.8798L72.6587 144.782H78.85V142.57H71.9953L71.7742 141.686H79.0711V139.475L83.7147 139.917C83.7147 140.359 83.4935 140.58 82.8302 140.58V141.686H88.5793V139.917C88.137 139.917 87.6948 140.138 87.4737 140.138H87.0315V132.62L90.5693 133.946H93.8861L95.434 132.399L98.7508 134.831C98.5296 135.052 98.0874 135.273 97.4241 135.494V138.811C97.4241 139.032 95.6551 139.696 94.5495 139.696H93.8861V138.811H90.3483V139.254C90.3483 139.254 90.1271 139.475 89.906 139.696L93.2228 139.917C93.2228 140.359 93.0017 140.58 92.3383 140.58V141.686H94.3284L96.0973 139.696C96.0973 139.696 98.0874 141.023 99.6353 142.128C99.6353 142.57 99.193 142.57 98.7508 142.57H92.3383V144.782H93.4439L95.2129 142.792C95.2129 142.792 97.203 144.118 98.5297 145.224C98.5297 145.666 98.0874 145.666 97.6452 145.666H92.1172V147.877H95.434L97.4241 145.666C97.4241 145.666 99.6352 147.214 100.962 148.32C100.962 148.762 100.52 148.762 100.077 148.762H95.8762L98.5297 150.973ZM70.0052 130.63H84.5991C84.378 130.63 84.1569 130.408 83.9358 130.408C83.7146 129.303 83.0513 127.976 82.1668 127.313L82.3879 127.092C88.3582 126.87 88.137 129.966 86.3681 130.63H94.3284L96.3185 127.976C96.3185 127.976 98.5296 129.745 99.8564 131.072C99.8564 131.514 99.4141 131.514 98.9719 131.514H70.2264L70.0052 130.63ZM80.619 138.811V137.927H77.0811V138.59C77.0811 138.811 75.5332 139.475 74.2065 139.475H73.7643V131.956L77.3022 133.283H80.3979L81.9457 131.735L85.2625 134.168C85.0414 134.389 84.5991 134.61 83.9358 134.831V138.148C83.9358 138.369 82.1668 139.032 81.0612 139.032H80.619V138.811ZM80.619 137.042V134.389H77.0811V137.042H80.619ZM82.3879 144.339H88.1371V142.128H82.3879V144.339ZM82.3879 147.656H88.1371V145.445H82.3879V147.656ZM86.8103 148.541C87.6948 149.646 88.8004 150.531 89.906 151.415C91.2327 150.531 93.0017 149.425 94.1073 148.541H86.8103ZM89.906 134.389V137.042H93.4439V134.389H89.906Z" fill="#254F4D"/>
<path d="M110.912 137.042C110.691 140.359 109.586 144.782 104.058 147.656L103.837 147.435C106.932 143.897 107.153 139.475 107.153 135.937V130.408L111.576 131.956H119.757C119.315 130.408 119.094 128.861 118.873 127.313L123.959 127.755C123.959 128.197 123.737 128.639 122.853 128.639C123.074 129.745 123.295 130.851 123.516 131.956H129.487L131.256 129.303C131.256 129.303 133.246 131.072 134.572 132.399C134.572 132.841 134.13 132.841 133.688 132.841H123.737C124.18 134.831 125.064 136.821 125.949 138.369C127.275 136.821 128.16 135.052 128.823 133.504L133.246 135.494C133.024 135.937 132.803 135.937 132.14 135.937C131.256 137.485 129.708 139.254 128.16 140.801C129.044 141.686 130.15 142.349 131.477 142.792C132.14 143.013 132.361 143.013 132.582 142.57C133.024 141.907 133.688 140.359 134.13 139.032H134.351L134.13 143.234C135.457 144.561 135.678 145.003 135.236 145.666C134.351 147.214 131.698 146.551 129.929 145.666C128.16 144.782 126.612 143.897 125.285 142.57C123.074 143.897 120.642 145.224 118.209 145.887L117.988 145.445C120.2 144.118 122.19 142.57 123.959 140.801C122.19 138.369 121.084 135.716 120.2 132.399H111.355V135.494V135.937H115.556L117.325 134.168L120.642 136.821C120.421 137.042 119.978 137.263 119.315 137.485C119.094 141.686 118.652 143.897 117.325 144.782C116.662 145.224 115.556 145.445 114.229 145.445C114.229 144.561 114.229 143.897 113.787 143.455C113.345 143.013 112.46 142.57 111.576 142.349V141.907C112.46 141.907 114.008 142.128 114.45 142.128C114.672 142.128 114.893 142.128 115.114 141.907C115.556 141.465 115.777 139.917 115.998 136.821H110.912V137.042ZM132.361 153.848C132.361 153.848 134.13 155.617 135.236 156.723C135.236 157.165 134.793 157.165 134.351 157.165H104.5L104.279 156.28H108.48V145.887L112.46 147.435H126.833L128.602 145.445L132.582 148.099C132.361 148.32 131.919 148.541 131.034 148.762V156.28H131.256L132.361 153.848ZM112.018 156.059H114.672V148.099H112.018V156.059ZM118.209 148.32V156.28H120.863V148.32H118.209ZM124.18 127.534C131.698 126.87 129.487 132.62 126.391 130.851C126.17 129.745 124.843 128.418 123.959 127.755L124.18 127.534ZM124.18 148.32V156.28H126.833V148.32H124.18Z" fill="#254F4D"/>
<path d="M160.222 142.128C162.433 144.339 166.192 145.666 169.73 146.33V146.772C168.403 147.214 167.519 148.32 167.077 150.089C163.539 148.541 161.107 145.887 159.559 142.128H150.493C148.061 145.666 143.638 148.541 138.331 150.31L138.11 149.868C141.427 147.877 144.08 145.003 145.849 142.128H138.995L138.773 141.244H142.09L141.648 128.639L144.965 129.745C146.07 128.861 147.176 127.755 147.839 127.092L150.493 129.745C150.493 128.639 150.714 127.755 150.714 127.092L154.694 127.755C154.694 128.197 154.252 128.418 153.367 128.418C153.367 129.082 153.367 129.524 153.146 130.408H155.136L156.463 128.639C156.463 128.639 158.011 129.966 158.895 130.851C158.895 131.293 158.453 131.293 158.011 131.293H153.146C153.146 131.956 152.925 132.62 152.925 133.283H155.136L156.463 131.956L159.116 134.168L158.895 133.283H161.991L162.212 130.187H158.453L158.232 129.303H161.991L163.539 127.534L167.077 130.187C166.856 130.408 166.635 130.63 165.971 130.63L165.529 140.801L166.856 139.032C166.856 139.032 168.625 140.58 169.73 141.686C169.73 142.128 169.288 142.128 168.846 142.128H160.222ZM162.654 149.204C162.654 149.204 164.866 150.752 166.413 152.079C166.413 152.521 165.971 152.521 165.529 152.521H156.021V157.165C156.021 157.386 154.252 158.049 152.704 158.049H152.041V152.521H142.532L142.311 151.637H152.041V148.099H146.513L146.292 147.214H152.041V143.234L157.126 143.676C157.126 144.118 156.905 144.339 156.021 144.561V147.435H157.348L159.116 145.224C159.116 145.224 161.107 146.772 162.433 147.877C162.433 148.32 161.991 148.32 161.549 148.32H156.021V151.858H160.885L162.654 149.204ZM147.176 131.735C147.176 131.735 148.503 132.62 149.387 133.504C149.608 133.283 149.829 133.283 150.051 133.283C150.051 132.399 150.272 131.293 150.272 130.187C150.051 130.187 149.829 130.187 149.608 129.966C148.724 130.187 146.955 130.408 145.186 130.63V133.062H145.849L147.176 131.735ZM161.77 138.148H158.895L158.674 137.042H161.991L162.212 133.946H159.559C159.338 134.168 158.895 134.389 158.453 134.389C158.453 138.148 158.232 139.254 157.348 139.917C156.684 140.359 155.8 140.58 154.694 140.58C154.694 139.917 154.694 139.475 154.252 139.254C154.031 139.032 153.367 138.811 152.704 138.59V138.148C153.367 138.148 154.252 138.148 154.694 138.148C155.136 138.148 155.136 138.148 155.357 137.927C155.579 137.706 155.579 136.6 155.579 133.946H153.146L152.041 135.273L149.387 133.725C149.166 133.725 149.166 133.946 148.945 133.946H145.407V137.042H146.513L147.839 135.273C147.839 135.273 149.166 136.379 150.051 137.263C150.051 136.6 150.051 135.715 150.051 135.052L153.367 135.937C153.146 136.379 152.925 136.6 152.262 136.6C151.82 138.148 151.156 139.696 150.272 140.801L149.608 140.58C149.829 139.696 150.051 138.59 150.051 137.485C149.829 137.706 149.608 137.706 149.387 137.706H145.407V140.801H161.328L161.77 138.148Z" fill="#254F4D"/>
<path d="M174.816 152.963C174.816 151.415 176.143 150.31 177.469 150.31C179.017 150.31 180.123 151.637 180.123 152.963C180.123 154.29 179.017 155.617 177.469 155.617C175.921 155.617 174.816 154.511 174.816 152.963ZM180.123 132.841C180.123 134.389 179.68 137.042 178.575 142.128L177.912 146.993H176.806L176.143 142.128C175.037 137.263 174.595 134.389 174.595 132.841C174.595 131.072 175.7 130.187 177.248 130.187C178.796 130.187 180.123 131.072 180.123 132.841Z" fill="#254F4D"/>
<path d="M190.958 240.087C190.736 240.53 190.515 240.972 189.41 240.972V269.055C189.41 269.497 186.535 271.045 183.661 271.045H182.334V245.837C180.565 247.606 178.575 249.375 176.585 250.701L176.143 250.259C179.902 244.068 183.882 234.338 185.43 224.83L194.717 227.704C194.496 228.368 193.832 228.81 192.727 228.81C191.179 232.569 189.631 236.107 187.641 238.982L190.958 240.087ZM212.406 237.213C212.406 237.876 211.743 238.318 210.637 238.539V263.085C210.637 267.728 209.532 270.382 202.014 271.045C201.792 268.834 201.571 267.065 200.687 265.959C199.802 264.854 198.918 264.19 196.264 263.527V263.085C196.264 263.085 201.571 263.306 202.677 263.306C203.34 263.306 203.561 263.085 203.561 262.421V246.942C203.119 247.163 202.898 247.163 202.235 247.163C199.36 253.797 195.159 258.883 190.515 262.2L189.852 261.758C192.284 257.335 194.496 250.038 195.601 243.404L203.34 245.837V236.549L212.406 237.213ZM223.904 236.77C223.462 237.213 223.02 237.434 221.914 237.434C220.145 239.424 216.829 242.077 214.396 243.625L213.954 243.404C214.396 241.414 214.617 238.318 214.839 236.107H201.129C198.255 240.087 194.938 243.404 191.179 245.837L190.736 245.394C193.832 240.53 196.928 232.569 198.255 225.051L207.099 228.368C206.878 229.031 206.215 229.473 205.109 229.252C204.225 231.242 203.119 233.011 202.014 234.78H214.175L217.713 231.242L223.904 236.77ZM212.406 244.289C228.99 252.249 223.02 266.18 216.386 260.21C215.944 254.903 213.954 249.375 211.743 244.731L212.406 244.289Z" fill="#254F4D"/>
<path d="M227.442 236.549C241.815 236.992 236.729 248.048 230.98 244.289C230.538 241.635 228.769 238.761 227.221 236.77L227.442 236.549ZM268.792 244.51C268.792 244.51 272.108 247.827 274.099 250.038C274.099 250.48 273.435 250.923 272.772 250.923H256.409C255.082 259.989 250.218 267.507 238.056 271.266L237.835 270.824C245.574 265.738 248.67 258.883 249.554 250.923H240.046L239.604 249.596H249.554C249.775 248.048 249.775 246.721 249.775 245.173V235.665H244.026L243.584 234.559C241.373 241.193 238.498 250.48 237.835 252.913C237.393 254.682 236.95 256.672 236.95 257.999C236.95 260.873 239.383 262.421 239.162 266.844C239.162 269.497 237.172 271.266 234.297 271.266C232.97 271.266 231.644 270.603 230.98 268.613C232.086 263.306 231.865 258.441 230.538 257.556C229.875 257.114 228.99 256.893 227.885 256.672V255.787H230.317C231.201 255.787 231.422 255.787 231.865 254.682C233.191 252.692 233.191 252.692 243.584 231.242L244.247 231.463L243.363 234.117H249.333V225.051L258.178 225.935C258.178 226.599 257.736 227.041 256.409 227.262V234.117H259.284L262.379 230.8L268.349 235.444C268.128 235.886 267.465 236.328 266.359 236.328V247.606L268.792 244.51ZM231.644 225.493C246.68 226.377 241.152 237.876 234.96 233.675C234.297 230.8 232.749 227.704 231.201 225.714L231.644 225.493ZM256.63 255.566C276.973 259.989 272.551 274.583 265.475 269.939C263.927 265.075 259.947 259.546 256.188 256.008L256.63 255.566ZM256.851 244.952C256.851 246.5 256.851 248.048 256.63 249.375H260.168V235.444H256.851V244.952Z" fill="#254F4D"/>
<path d="M304.171 262.863C306.161 263.084 308.593 263.084 311.247 263.084C314.121 263.084 320.755 263.084 323.85 263.084V263.527C321.418 264.19 320.313 266.844 320.313 269.718H311.025C299.748 269.718 293.557 267.728 290.019 259.104C287.587 263.748 283.828 267.949 277.858 270.824L277.415 270.382C283.828 263.969 285.597 254.682 285.818 247.384L294.663 248.932C294.442 249.596 293.999 250.038 292.673 250.038C292.23 252.47 291.567 254.682 290.461 257.114C292.009 259.104 294.22 260.652 296.874 261.537V242.741H284.712L284.27 241.414C284.049 241.856 283.607 242.077 283.164 242.299C281.174 243.404 278.079 242.52 277.415 239.866C276.752 237.434 278.3 235.665 280.29 234.78C281.838 234.117 284.049 232.348 284.049 230.358H284.491C284.933 231.463 285.376 232.348 285.597 233.454H300.191C299.527 233.232 298.864 233.011 298.201 232.569C298.201 229.915 297.095 227.041 295.105 225.493L295.326 225.272C308.151 224.608 307.045 232.348 302.623 233.675H313.9L317.438 230.137L323.629 235.886C323.187 236.328 322.745 236.328 321.639 236.549C320.091 237.876 317.88 239.203 315.669 240.308C316.554 240.972 317.659 241.856 318.322 242.299C318.101 242.741 317.659 243.183 316.996 243.183H303.95V252.47H309.035L312.352 248.048C312.352 248.048 316.111 250.923 318.322 252.913C318.322 253.355 317.659 253.797 316.996 253.797H303.95V262.863H304.171ZM309.035 241.414L312.352 237.213C312.352 237.213 313.237 237.876 314.342 238.539C314.563 237.213 314.563 235.665 314.785 234.559H286.039C286.481 237.655 285.818 239.866 284.491 241.414H309.035Z" fill="#254F4D"/>
<path d="M330.484 262.863C330.484 260.431 332.474 258.441 334.907 258.441C337.339 258.441 339.329 260.431 339.329 262.863C339.329 265.296 337.339 267.286 334.907 267.286C332.474 267.286 330.484 265.296 330.484 262.863Z" fill="#254F4D"/>
<path d="M348.616 262.863C348.616 260.431 350.606 258.441 353.038 258.441C355.471 258.441 357.461 260.431 357.461 262.863C357.461 265.296 355.471 267.286 353.038 267.286C350.606 267.286 348.616 265.296 348.616 262.863Z" fill="#254F4D"/>
<path d="M366.969 262.863C366.969 260.431 368.959 258.441 371.391 258.441C373.823 258.441 375.814 260.431 375.814 262.863C375.814 265.296 373.823 267.286 371.391 267.286C368.959 267.286 366.969 265.296 366.969 262.863Z" fill="#254F4D"/>
<path d="M385.101 262.863C385.101 260.431 387.091 258.441 389.523 258.441C391.955 258.441 393.945 260.431 393.945 262.863C393.945 265.296 391.955 267.286 389.523 267.286C387.091 267.286 385.101 265.296 385.101 262.863Z" fill="#254F4D"/>
<path d="M403.454 262.863C403.454 260.431 405.444 258.441 407.876 258.441C410.308 258.441 412.298 260.431 412.298 262.863C412.298 265.296 410.308 267.286 407.876 267.286C405.444 267.286 403.454 265.296 403.454 262.863Z" fill="#254F4D"/>
<path d="M421.585 262.863C421.585 260.431 423.576 258.441 426.008 258.441C428.44 258.441 430.43 260.431 430.43 262.863C430.43 265.296 428.44 267.286 426.008 267.286C423.576 267.286 421.585 265.296 421.585 262.863Z" fill="#254F4D"/>
</svg>
